<svg xmlns="http://www.w3.org/2000/svg" width="57.285" height="50" viewBox="0 0 57.285 50">
  <g id="noun_advertise_1820364" transform="translate(-5.001 -10.723)">
    <path id="Path_91" data-name="Path 91" d="M20.173,38.247,25.1,50.155l23.162.746L36.028,21.346Z" transform="translate(-5.638 -3.77)" fill="#2c5f5b"/>
    <path id="Path_92" data-name="Path 92" d="M50.962,17.162a2.071,2.071,0,0,0-3.827,1.584L59.373,48.3A2.071,2.071,0,1,0,63.2,46.717Z" transform="translate(-15.4 -1.831)" fill="#2c5f5b"/>
    <path id="Path_93" data-name="Path 93" d="M62.54,32.544l-.638.264,3.609,8.717.638-.264c1.475-.611,2.8-1.348,1.066-5.547S64.015,31.933,62.54,32.544Z" transform="translate(-20.741 -7.834)" fill="#2c5f5b"/>
    <path id="Path_94" data-name="Path 94" d="M70.432,20.746a1.2,1.2,0,0,0,.587-.519l4.378-7.7a1.208,1.208,0,0,0-2.1-1.195l-4.378,7.7a1.209,1.209,0,0,0,1.513,1.713Z" transform="translate(-23.249)" fill="#fff"/>
    <path id="Path_95" data-name="Path 95" d="M87.971,47.13l-8.538-2.35a1.209,1.209,0,0,0-.641,2.331l8.538,2.35a1.209,1.209,0,1,0,.641-2.331Z" transform="translate(-26.647 -12.394)" fill="#fff"/>
    <path id="Path_96" data-name="Path 96" d="M86.868,26.369l-9.328,3.863a1.208,1.208,0,1,0,.924,2.231L87.792,28.6a1.208,1.208,0,1,0-.924-2.232Z" transform="translate(-26.253 -5.673)" fill="#fff"/>
    <path id="Path_97" data-name="Path 97" d="M13.195,48.569l-5.8,2.4a1.14,1.14,0,0,0-.486.434l-1.83,3.311a.811.811,0,0,0-.035.621l2.532,6.115a.812.812,0,0,0,.464.415l3.635,1.048a1.146,1.146,0,0,0,.65-.037l5.8-2.4Z" transform="translate(0 -13.886)" fill="#2c5f5b"/>
    <path id="Path_98" data-name="Path 98" d="M23.426,68.964,18.482,71.01l4.49,10.844a.345.345,0,0,0,.451.187l4.305-1.782a.346.346,0,0,0,.187-.452Z" transform="translate(-4.784 -21.345)" fill="#2c5f5b"/>
  </g>
</svg>
