<svg xmlns="http://www.w3.org/2000/svg" width="322.161" height="36.467" viewBox="0 0 322.161 36.467">
  <path id="Path_114" data-name="Path 114" d="M4939.168,4189.951c-1.514-.668-3.052-1.335-4.572-1.985l.393-.919c1.524.65,3.066,1.32,4.583,1.989Zm-11.949-5.053c-1.54-.623-3.1-1.245-4.649-1.849l.364-.932c1.549.605,3.118,1.229,4.661,1.854Zm-309.408-3.217-.4-.917c.016-.007,1.637-.712,4.651-1.87l.359.934C4619.43,4180.977,4617.827,4181.674,4617.812,4181.682Zm297.289-1.469c-1.555-.573-3.135-1.145-4.7-1.7l.334-.942c1.565.556,3.149,1.129,4.708,1.7Zm-285.188-3.119-.329-.944c1.543-.537,3.141-1.079,4.749-1.61l.313.95C4633.042,4176.018,4631.449,4176.559,4629.912,4177.094Zm272.937-1.182c-1.569-.523-3.164-1.044-4.739-1.549l.3-.953c1.579.506,3.178,1.028,4.751,1.553Zm-260.592-2.84-.292-.957c1.576-.481,3.19-.961,4.8-1.429l.279.96C4645.438,4172.113,4643.829,4172.592,4642.257,4173.072ZM4890.474,4172c-1.588-.475-3.2-.946-4.8-1.4l.275-.961c1.6.457,3.215.93,4.807,1.405Zm-235.735-2.5-.259-.966c1.6-.43,3.23-.857,4.847-1.271l.248.969C4657.961,4168.639,4656.334,4169.065,4654.739,4169.495Zm223.239-1.018c-1.6-.425-3.231-.846-4.84-1.251l.245-.97c1.612.407,3.245.829,4.852,1.255Zm-210.646-2.155-.229-.974c1.612-.38,3.252-.756,4.875-1.119l.218.976C4670.575,4165.567,4668.939,4165.942,4667.331,4166.321Zm198.042-.975c-1.614-.374-3.254-.744-4.873-1.1l.214-.977c1.623.355,3.267.726,4.885,1.1Zm-185.362-1.813-.2-.979c1.625-.332,3.276-.66,4.909-.974l.189.982C4683.28,4162.876,4681.632,4163.2,4680.011,4163.534Zm172.667-.92c-1.624-.323-3.273-.641-4.9-.945l.183-.983c1.633.3,3.286.623,4.914.947Zm-159.9-1.492-.171-.985c1.635-.284,3.3-.563,4.935-.83l.161.987C4696.061,4160.559,4694.4,4160.838,4692.773,4161.122Zm147.133-.844c-1.632-.272-3.29-.539-4.926-.792l.153-.988c1.641.253,3.3.521,4.938.793Zm-134.3-1.2-.143-.99c1.644-.237,3.312-.468,4.958-.687l.132.991C4708.908,4158.614,4707.244,4158.845,4705.6,4159.081Zm121.464-.742c-1.639-.222-3.3-.437-4.947-.64l.123-.992c1.647.2,3.316.418,4.959.641Zm-108.6-.925-.114-.994c1.65-.189,3.325-.373,4.977-.544l.1.995C4721.79,4157.042,4720.119,4157.224,4718.472,4157.414Zm95.7-.618c-1.645-.171-3.315-.335-4.964-.487l.092-1c1.653.153,3.327.317,4.976.489Zm-82.774-.68-.085-1c1.654-.142,3.332-.276,4.986-.4l.074,1C4734.726,4155.84,4733.052,4155.975,4731.4,4156.116Zm69.841-.469c-1.65-.121-3.325-.235-4.978-.337l.062-1c1.657.1,3.335.216,4.989.338Zm-56.895-.453-.057-1c1.66-.094,3.343-.18,5-.255l.045,1C4747.684,4155.015,4746,4155.1,4744.348,4155.194Zm43.931-.3c-1.653-.072-3.331-.135-4.987-.187l.032-1c1.66.053,3.341.116,5,.188Zm-30.959-.242-.027-1c1.662-.046,3.345-.083,5.005-.109l.016,1C4760.658,4154.567,4758.978,4154.6,4757.32,4154.649Zm17.979-.126c-1.655-.022-3.334-.035-4.992-.039l0-1c1.662,0,3.345.017,5,.039Z" transform="translate(-4617.411 -4153.484)" fill="#2c5f5b"/>
</svg>
