<svg xmlns="http://www.w3.org/2000/svg" width="142.964" height="49.996" viewBox="0 0 142.964 49.996">
  <g id="noun_Social_Media_2492575" data-name="noun_Social Media_2492575" transform="translate(-4.895 -2)">
    <g id="Group_26" data-name="Group 26" transform="translate(4.895 2)">
      <path id="Path_99" data-name="Path 99" d="M28.122,5.822h.052a1.042,1.042,0,0,1,0,2.083A1.065,1.065,0,0,1,27.1,6.864,1.02,1.02,0,0,1,28.122,5.822Zm-10.926,0h6.093a1.042,1.042,0,1,1,0,2.083H17.2a1.042,1.042,0,0,1,0-2.083ZM24.768,10.7a4.977,4.977,0,0,1,1.042-.1H36.642c-.01-1.677,0-2.875,0-3.343a5.256,5.256,0,0,0-4.416-5.177A4.106,4.106,0,0,0,31.382,2H10.155a5.272,5.272,0,0,0-5.26,5.26V46.736A5.272,5.272,0,0,0,10.155,52H31.382a5.272,5.272,0,0,0,5.26-5.26V35.5H33.528l-1.052,1.25V40.5H9.061V10.7Zm-4,32.862a2.083,2.083,0,1,1-2.083,2.083A2.083,2.083,0,0,1,20.769,43.559Z" transform="translate(-4.895 -2)" fill="#2c5f5b"/>
      <path id="Path_100" data-name="Path 100" d="M44.725,12.25H25.112a3.438,3.438,0,0,0-3.437,3.427V29.561a3.432,3.432,0,0,0,3.437,3.427h.958v4a1.049,1.049,0,0,0,1.844.677l3.948-4.677H44.725a3.432,3.432,0,0,0,3.437-3.427V15.677A3.438,3.438,0,0,0,44.725,12.25Zm-6.813,5.7a2.225,2.225,0,0,0-1.281-.408q-1.468,0-1.467,1.6v1.547h2.73v1.858H35.238v7.033H32.917V22.544H31.283V20.686h1.634V19.1a3.38,3.38,0,0,1,.929-2.516,3.56,3.56,0,0,1,2.618-.919,3.581,3.581,0,0,1,2.1.538Z" transform="translate(-4.197 -1.574)" fill="#fff"/>
      <path id="Subtraction_1" data-name="Subtraction 1" d="M-4527.563-2599.221a1.088,1.088,0,0,1-.354-.062,1.042,1.042,0,0,1-.687-.98v-4h-.958a3.436,3.436,0,0,1-3.438-3.427v-13.884a3.436,3.436,0,0,1,3.438-3.427h19.613a3.435,3.435,0,0,1,3.437,3.427v13.884a3.435,3.435,0,0,1-3.437,3.427h-12.863l-3.948,4.677A1.052,1.052,0,0,1-4527.563-2599.221Zm6.021-22.206a4.441,4.441,0,0,0-4.436,4.437v4.628a4.441,4.441,0,0,0,4.436,4.437h4.629a4.442,4.442,0,0,0,4.436-4.437v-4.628a4.442,4.442,0,0,0-4.436-4.437Zm4.629,12.343h-4.629a3.282,3.282,0,0,1-3.277-3.279v-4.628a3.282,3.282,0,0,1,3.277-3.28h4.629a3.282,3.282,0,0,1,3.278,3.28v4.628A3.282,3.282,0,0,1-4516.913-2609.083Zm-2.281-8.662a3.033,3.033,0,0,0-2.724,1.678,3.046,3.046,0,0,0,.568,3.528,3.025,3.025,0,0,0,2.157.894,3.077,3.077,0,0,0,1.372-.325,3.046,3.046,0,0,0,1.645-3.172,3.028,3.028,0,0,0-.86-1.71,3.03,3.03,0,0,0-1.71-.86A2.978,2.978,0,0,0-4519.194-2617.745Zm3.373-.9a.58.58,0,0,0-.579.579.58.58,0,0,0,.579.579h.006a.579.579,0,0,0,.578-.579.579.579,0,0,0-.578-.579Zm-3.372,5.845a1.881,1.881,0,0,1-1.338-.556,1.888,1.888,0,0,1-.354-2.189,1.885,1.885,0,0,1,1.69-1.042,1.888,1.888,0,0,1,.279.021,1.883,1.883,0,0,1,1.595,1.595,1.889,1.889,0,0,1-1.021,1.968A1.887,1.887,0,0,1-4519.193-2612.8Z" transform="translate(4583.477 2635.676)" fill="#fff"/>
      <path id="Subtraction_2" data-name="Subtraction 2" d="M-4527.563-2599.221a1.088,1.088,0,0,1-.354-.062,1.042,1.042,0,0,1-.687-.98v-4h-.958a3.436,3.436,0,0,1-3.438-3.427v-13.884a3.436,3.436,0,0,1,3.438-3.427h19.613a3.435,3.435,0,0,1,3.437,3.427v13.884a3.435,3.435,0,0,1-3.437,3.427h-12.863l-3.948,4.677A1.052,1.052,0,0,1-4527.563-2599.221Zm.8-11.067h0a9.585,9.585,0,0,0,4.618,1.231,8.029,8.029,0,0,0,5.675-2.251,8.585,8.585,0,0,0,2.446-6.306,2.726,2.726,0,0,0-.051-.529,4.9,4.9,0,0,0,1.325-2.337,6.933,6.933,0,0,1-2,.974,2.855,2.855,0,0,0-2.154-.981,2.846,2.846,0,0,0-1.017.188,2.863,2.863,0,0,0-1.836,2.7v.637h-.177a6.8,6.8,0,0,1-5.555-2.887,7.854,7.854,0,0,0-.557,3.184,5.493,5.493,0,0,0,.826,2.727,6.423,6.423,0,0,0,2.916,2.369,7.382,7.382,0,0,1-4.166,1.28C-4526.568-2610.282-4526.667-2610.284-4526.763-2610.288Z" transform="translate(4616.477 2635.676)" fill="#fff"/>
      <path id="Subtraction_3" data-name="Subtraction 3" d="M-4527.563-2599.221a1.088,1.088,0,0,1-.354-.062,1.042,1.042,0,0,1-.687-.98v-4h-.958a3.436,3.436,0,0,1-3.438-3.427v-13.884a3.436,3.436,0,0,1,3.438-3.427h19.613a3.435,3.435,0,0,1,3.437,3.427v13.884a3.435,3.435,0,0,1-3.437,3.427h-12.863l-3.948,4.677A1.052,1.052,0,0,1-4527.563-2599.221Zm6.883-14.549v2.652h1.827v-2.652h2.653v-1.85h-2.653v-2.63h-1.827v2.63h-2.63v1.85Z" transform="translate(4649.477 2635.676)" fill="#fff"/>
    </g>
  </g>
</svg>
