<svg xmlns="http://www.w3.org/2000/svg" width="50" height="50" viewBox="0 0 50 50">
  <g id="Group_40" data-name="Group 40" transform="translate(694 -3494.567)">
    <g id="noun_website_4015101" transform="translate(-695 3493.567)">
      <g id="Group_28" data-name="Group 28" transform="translate(1 1)">
        <circle id="Ellipse_12" data-name="Ellipse 12" cx="1.67" cy="1.67" r="1.67" transform="translate(6.178 4.642)" fill="#2c5f5b"/>
        <circle id="Ellipse_13" data-name="Ellipse 13" cx="1.67" cy="1.67" r="1.67" transform="translate(11.915 4.642)" fill="#2c5f5b"/>
        <circle id="Ellipse_14" data-name="Ellipse 14" cx="1.67" cy="1.67" r="1.67" transform="translate(17.664 4.642)" fill="#2c5f5b"/>
        <path id="Path_103" data-name="Path 103" d="M46,1H6A5.005,5.005,0,0,0,1,6V46a5.005,5.005,0,0,0,5,5H46a5.005,5.005,0,0,0,5-5V6A5.005,5.005,0,0,0,46,1ZM6,4.333H46A1.669,1.669,0,0,1,47.667,6v4.25H4.333V6A1.669,1.669,0,0,1,6,4.333ZM46,47.667H6A1.669,1.669,0,0,1,4.333,46V13.583H47.667V46A1.669,1.669,0,0,1,46,47.667Z" transform="translate(-1 -1)" fill="#2c5f5b"/>
      </g>
    </g>
    <rect id="Rectangle_36" data-name="Rectangle 36" width="32" height="2" transform="translate(-687 3514)" fill="#fff"/>
    <rect id="Rectangle_37" data-name="Rectangle 37" width="32" height="2" transform="translate(-687 3521)" fill="#fff"/>
    <rect id="Rectangle_38" data-name="Rectangle 38" width="19" height="2" transform="translate(-687 3528)" fill="#fff"/>
  </g>
</svg>
