<svg xmlns="http://www.w3.org/2000/svg" width="59.066" height="50" viewBox="0 0 59.066 50">
  <g id="noun_Blog_1290486" transform="translate(-0.5 -15.174)">
    <path id="Path_90" data-name="Path 90" d="M58.825,10.174H5.242A2.741,2.741,0,0,0,2.5,12.915v33.66a2.743,2.743,0,0,0,2.742,2.744H26.394V58.4H22.1v1.776h19.21V58.4h-4.3v-9.08H58.826a2.743,2.743,0,0,0,2.74-2.744V12.915A2.742,2.742,0,0,0,58.825,10.174Zm-.84,31.755H6.007V13.4H57.985V41.929Z" transform="translate(-2 5)" fill="#2c5f5b"/>
    <path id="Path_107" data-name="Path 107" d="M31.492,35.108l-3.159,3.156.781.783,3.159-3.158h6.078l8.3-8.3a.052.052,0,0,1,.005-.009l.358-.357.015-.386.394-.022,2.736-2.734a4.831,4.831,0,0,0,.343-.383.537.537,0,0,0,.259-.357,4.859,4.859,0,0,0-.239-5.708l.026-.024-.386-.387,0,0,0,0-.39-.389-.022.024a4.848,4.848,0,0,0-6.446.368L36.113,24.4l.019.323-.312-.033-1.359,1.361h0l-2.969,2.969v6.083Zm6.4-.324H33.379L35.1,33.059l4.5.015Zm1.921-8h0l-.181.182-.017-4.5,3.042-3.041.014,4.5Zm.617.944,4.5.015-4.227,4.231-4.5-.014Zm6.51-1.992-.979.054-.031.851-4.4-.015,2.083-2.081,0,0,.786-.786,4.5.014Zm2.942-3.064-4.38-.016,4.233-4.232A3.759,3.759,0,0,1,49.885,22.67ZM46.73,16.9a3.717,3.717,0,0,1,2.229.737L43.788,22.81h0l-.012.011-.012-4.5L44.08,18A3.732,3.732,0,0,1,46.73,16.9Zm-10.5,8.945,1.079.112-.062-1.123,1.275-1.274.012,4.5-3.114,3.115-.012-4.506Zm-1.923,1.927.012,4.5L32.6,34.005V29.483Zm-4.087,2.213H13.038V28.884h17.18Zm0,2.553H13.038v-1.1h17.18Zm0,2.558H13.038V33.994h17.18ZM26.89,37.652H13.038V36.547H26.89Z" transform="translate(-2 5)" fill="#fff"/>
  </g>
</svg>
