<svg xmlns="http://www.w3.org/2000/svg" width="530.62" height="377.376" viewBox="0 0 530.62 377.376">
  <g id="Group_187" data-name="Group 187" transform="translate(0 0)">
    <path id="Path_282" data-name="Path 282" d="M308.3,58.554c-34.017-1.183-66.416-12.162-97.353-24.178S149.363,9.048,116.161,2.682C94.806-1.412,70.381-1.99,53.178,9.452,36.616,20.49,31.265,39.491,28.39,57.14c-2.165,13.277-3.437,27.247,2.491,39.678C35,105.449,42.308,112.7,47.364,120.97c17.592,28.761,5.156,64.229-13.9,92.312-8.935,13.177-19.316,25.755-26.217,39.767s-10.092,30.091-4.052,44.4c5.981,14.191,20.241,24.83,35.689,32.319,31.373,15.211,68.329,19.568,104.39,22.033,79.8,5.461,160.026,3.1,240.039.731,29.613-.878,59.351-1.766,88.48-6.344,16.178-2.544,32.877-6.581,44.624-16.294,14.9-12.367,18.6-33.313,8.609-48.818-16.756-26.012-63.073-32.472-74.8-60.392-6.444-15.363.174-32.482,9.545-46.732,20.1-30.569,53.785-57.391,55.556-92.333,1.219-24-14.975-48.04-40.014-59.393-26.244-11.9-62.642-10.407-81.994,9.3C373.371,51.79,338.334,59.595,308.3,58.554Z" transform="translate(0)" fill="#fff" opacity="0.1"/>
    <g id="Group_183" data-name="Group 183" transform="translate(27.256 177.107)" opacity="0.2">
      <path id="Path_283" data-name="Path 283" d="M236.868,622.455a12.7,12.7,0,0,1,.788,1.876q-6.307,2.381-12.615,4.993c-.089-.152-.179-.315-.263-.478a10.746,10.746,0,0,1-1.309-5.493,6.408,6.408,0,0,1,3.154-5.613,6.491,6.491,0,0,1,6.412.526,10.848,10.848,0,0,1,3.832,4.189Z" transform="translate(-133.266 -469.864)" fill="#3d5643" opacity="0.2"/>
      <path id="Path_284" data-name="Path 284" d="M225.269,615.134c3.342-1.765,4.178-6.744,1.866-11.12s-6.894-6.493-10.236-4.728-4.177,6.744-1.866,11.12S221.927,616.9,225.269,615.134Z" transform="translate(-128.646 -461.109)" fill="#3d5643" opacity="0.2"/>
      <path id="Path_285" data-name="Path 285" d="M215.546,596.71c3.342-1.765,4.178-6.744,1.866-11.12s-6.894-6.493-10.237-4.728S203,587.6,205.31,591.982,212.2,598.475,215.546,596.71Z" transform="translate(-124.034 -452.369)" fill="#3d5643" opacity="0.2"/>
      <path id="Path_286" data-name="Path 286" d="M205.812,578.287c3.342-1.765,4.178-6.744,1.866-11.12s-6.894-6.493-10.236-4.728-4.178,6.744-1.866,11.12S202.47,580.052,205.812,578.287Z" transform="translate(-119.416 -443.629)" fill="#3d5643" opacity="0.2"/>
      <path id="Path_287" data-name="Path 287" d="M196.078,559.863c3.342-1.765,4.178-6.743,1.866-11.12s-6.894-6.493-10.236-4.728-4.178,6.744-1.866,11.12S192.736,561.628,196.078,559.863Z" transform="translate(-114.798 -434.889)" fill="#3d5643" opacity="0.2"/>
      <path id="Path_288" data-name="Path 288" d="M71.3,399.718a33.547,33.547,0,0,1-4.005-2.1l14.522-11.038-17.129,9.214A32.83,32.83,0,0,1,52,373.112l29.392-.215-29.539-4.389a32.787,32.787,0,1,1,65.012,7.159,32.615,32.615,0,0,1,6.1,3.543L107.99,400.832,126.1,381.821a32.826,32.826,0,0,1,9.7,29.691,32.787,32.787,0,1,1-45.57,24.062,32.787,32.787,0,0,1-18.922-35.841Z" transform="translate(-51.856 -336.958)" fill="#fff" opacity="0.2"/>
      <path id="Path_289" data-name="Path 289" d="M166.616,438.293a32.652,32.652,0,0,1,3.264,21.2,32.787,32.787,0,1,1-45.57,24.062C117.819,480.673,164.9,435.04,166.616,438.293Z" transform="translate(-85.936 -384.952)" fill="#fff" opacity="0.1"/>
    </g>
    <g id="Group_184" data-name="Group 184" transform="translate(354.182 37.305)" opacity="0.2">
      <path id="Path_290" data-name="Path 290" d="M690.889,488.723a16.7,16.7,0,0,0-.725,2.733q9.156,2.055,18.317,4.462c.095-.226.189-.468.279-.71a15,15,0,0,0,.731-7.816c-.625-3.364-2.533-6.076-5.419-7.122s-6.076-.194-8.715,1.976a15.025,15.025,0,0,0-4.468,6.475Z" transform="translate(-681.592 -264.931)" fill="#3d5643" opacity="0.2"/>
      <path id="Path_291" data-name="Path 291" d="M718.408,467.992c2.343-6.459.243-13.145-4.691-14.935s-10.832,2-13.175,8.454-.243,13.145,4.691,14.935S716.065,474.45,718.408,467.992Z" transform="translate(-686.061 -252.021)" fill="#3d5643" opacity="0.2"/>
      <path id="Path_292" data-name="Path 292" d="M727.213,440c2.336-6.459.231-13.141-4.7-14.926s-10.826,2-13.163,8.463-.231,13.141,4.7,14.926S724.877,446.458,727.213,440Z" transform="translate(-690.241 -238.748)" fill="#3d5643" opacity="0.2"/>
      <path id="Path_293" data-name="Path 293" d="M738.158,413.6c2.343-6.459.243-13.145-4.691-14.935s-10.832,2-13.175,8.454-.243,13.145,4.691,14.935S735.815,420.061,738.158,413.6Z" transform="translate(-695.43 -226.22)" fill="#3d5643" opacity="0.2"/>
      <path id="Path_294" data-name="Path 294" d="M748.033,386.414c2.343-6.459.243-13.145-4.69-14.935s-10.832,2-13.175,8.454-.243,13.145,4.69,14.935S745.69,392.872,748.033,386.414Z" transform="translate(-700.115 -213.321)" fill="#3d5643" opacity="0.2"/>
      <path id="Path_295" data-name="Path 295" d="M781.838,155.176a45.3,45.3,0,0,0,5.109-3.679l-22.076-12.378,25.318,9.408a45.593,45.593,0,0,0,13.14-33.607l-40.472,5.3,39.794-11.679a45.528,45.528,0,1,0-88.066,22.217,45.735,45.735,0,0,0-7.711,6.029l24.7,26.9-28.525-22.711a45.55,45.55,0,0,0-7.674,42.69,45.523,45.523,0,1,0,67.277,24.43,45.538,45.538,0,0,0,19.216-52.913Z" transform="translate(-673.874 -70.974)" fill="#fff" opacity="0.2"/>
      <path id="Path_296" data-name="Path 296" d="M695.794,228.42a45.355,45.355,0,0,0-.452,29.786,45.523,45.523,0,1,0,67.278,24.43C770.982,277.454,697.539,223.621,695.794,228.42Z" transform="translate(-673.856 -145.522)" fill="#fff" opacity="0.1"/>
    </g>
    <path id="Path_297" data-name="Path 297" d="M148.549,643.136c19.536,0,35.373-3.045,35.373-6.8s-15.837-6.8-35.373-6.8-35.373,3.045-35.373,6.8S129.013,643.136,148.549,643.136Z" transform="translate(-53.69 -298.647)" fill="#fff"/>
    <path id="Path_298" data-name="Path 298" d="M175.625,637.5c2.276,0,4.121-2.414,4.121-5.393s-1.845-5.393-4.121-5.393-4.121,2.415-4.121,5.393S173.349,637.5,175.625,637.5Z" transform="translate(-81.361 -297.309)" fill="#3d5643"/>
    <path id="Path_299" data-name="Path 299" d="M175.625,624.958c2.276,0,4.121-2.414,4.121-5.393s-1.845-5.393-4.121-5.393-4.121,2.415-4.121,5.393S173.349,624.958,175.625,624.958Z" transform="translate(-81.361 -291.36)" fill="#3d5643"/>
    <path id="Path_300" data-name="Path 300" d="M175.625,612.418c2.276,0,4.121-2.415,4.121-5.393s-1.845-5.393-4.121-5.393-4.121,2.415-4.121,5.393S173.349,612.418,175.625,612.418Z" transform="translate(-81.361 -285.411)" fill="#3d5643"/>
    <path id="Path_301" data-name="Path 301" d="M175.625,599.888c2.276,0,4.121-2.415,4.121-5.393s-1.845-5.393-4.121-5.393-4.121,2.415-4.121,5.393S173.349,599.888,175.625,599.888Z" transform="translate(-81.361 -279.467)" fill="#3d5643"/>
    <path id="Path_302" data-name="Path 302" d="M175.625,587.349c2.276,0,4.121-2.415,4.121-5.393s-1.845-5.393-4.121-5.393-4.121,2.415-4.121,5.393S173.349,587.349,175.625,587.349Z" transform="translate(-81.361 -273.518)" fill="#3d5643"/>
    <path id="Path_303" data-name="Path 303" d="M175.625,574.809c2.276,0,4.121-2.415,4.121-5.393s-1.845-5.393-4.121-5.393-4.121,2.415-4.121,5.393S173.349,574.809,175.625,574.809Z" transform="translate(-81.361 -267.569)" fill="#3d5643"/>
    <path id="Path_304" data-name="Path 304" d="M175.625,562.279c2.276,0,4.121-2.414,4.121-5.393s-1.845-5.393-4.121-5.393-4.121,2.415-4.121,5.393S173.349,562.279,175.625,562.279Z" transform="translate(-81.361 -261.625)" fill="#3d5643"/>
    <path id="Path_305" data-name="Path 305" d="M176.872,447.154a19.315,19.315,0,0,0,1.53-2.26l-10.817-1.777,11.7.089a19.747,19.747,0,0,0,.378-15.632l-15.7,8.142,14.48-10.638a19.731,19.731,0,1,0-32.588,22.075,19.712,19.712,0,0,0-2.255,3.6l14.049,7.3-14.98-5.03a19.739,19.739,0,0,0,3.185,18.528,19.726,19.726,0,1,0,31.011,0,19.731,19.731,0,0,0,0-24.393Z" transform="translate(-67.186 -196.975)" fill="#fff"/>
    <path id="Path_306" data-name="Path 306" d="M141.629,498.9a19.63,19.63,0,0,0,4.2,12.2,19.726,19.726,0,1,0,31.011,0C179.509,507.741,141.629,496.7,141.629,498.9Z" transform="translate(-67.18 -236.538)" fill="#fff" opacity="0.1"/>
    <path id="Path_307" data-name="Path 307" d="M518.7,178.373H272.314a3.9,3.9,0,0,0-3.9,3.9V229.32a3.9,3.9,0,0,0,3.9,3.9H518.7a3.9,3.9,0,0,0,3.9-3.9V182.273A3.9,3.9,0,0,0,518.7,178.373Z" transform="translate(-127.334 -84.619)" fill="#98b5a9"/>
    <path id="Path_308" data-name="Path 308" d="M306.826,52.153s3.611,98.2-2.791,109.694H520.448s-9.193-75.535,0-109.694Z" transform="translate(-144.233 -24.741)" fill="#fff"/>
    <path id="Path_309" data-name="Path 309" d="M306.826,52.153s3.611,98.2-2.791,109.694H520.448s-9.193-75.535,0-109.694Z" transform="translate(-144.233 -24.741)" fill="#fff" opacity="0.03"/>
    <path id="Path_310" data-name="Path 310" d="M510.138,252.893H351.516v19.7H510.138Z" transform="translate(-166.757 -119.971)" fill="#98b5a9"/>
    <path id="Path_311" data-name="Path 311" d="M508.17,482.1h-294a15.675,15.675,0,0,1-15.579-17.408L204.6,410.5q.594-5.4.857-10.833l1.13-36.74q.39-12.451,1.682-24.84.673-6.423,1.577-12.819l7.732-53.864a28.384,28.384,0,0,1,28.067-24.283h11.742A27.6,27.6,0,0,1,273.9,252.68c12.162,9.077,46.716,15.626,87.45,15.626s75.293-6.549,87.482-15.647a27.6,27.6,0,0,1,16.509-5.556H484.36a17,17,0,0,1,16.746,14.055l10.381,58.868q1.577,8.978,2.675,18.028,1.829,15.048,2.3,30.228l1.051,34.138a192.16,192.16,0,0,0,1.845,21.271l5.577,39.058A16.929,16.929,0,0,1,508.17,482.1Z" transform="translate(-94.164 -117.224)" fill="#275735"/>
    <path id="Path_312" data-name="Path 312" d="M511.853,434.883H252.046a10.491,10.491,0,0,0-10.491,10.491v99.713a10.491,10.491,0,0,0,10.491,10.491H511.853a10.491,10.491,0,0,0,10.491-10.491V445.374A10.491,10.491,0,0,0,511.853,434.883Z" transform="translate(-114.592 -206.306)" fill="#fff" opacity="0.1"/>
    <path id="Path_313" data-name="Path 313" d="M268.652,462.4c4.445,0,8.047-3.014,8.047-6.733s-3.6-6.733-8.047-6.733-8.047,3.014-8.047,6.733S264.208,462.4,268.652,462.4Z" transform="translate(-123.63 -212.971)" fill="#fff"/>
    <path id="Path_314" data-name="Path 314" d="M268.652,462.4c4.445,0,8.047-3.014,8.047-6.733s-3.6-6.733-8.047-6.733-8.047,3.014-8.047,6.733S264.208,462.4,268.652,462.4Z" transform="translate(-123.63 -212.971)" fill="#fff" opacity="0.1"/>
    <path id="Path_315" data-name="Path 315" d="M268.652,459.589c4.445,0,8.047-3.014,8.047-6.733s-3.6-6.733-8.047-6.733-8.047,3.014-8.047,6.733S264.208,459.589,268.652,459.589Z" transform="translate(-123.63 -211.638)" fill="#fff"/>
    <path id="Path_316" data-name="Path 316" d="M286.77,507.079c4.444,0,8.047-3.014,8.047-6.733s-3.6-6.733-8.047-6.733-8.047,3.014-8.047,6.733S282.326,507.079,286.77,507.079Z" transform="translate(-132.225 -234.167)" fill="#d7ffee"/>
    <path id="Path_317" data-name="Path 317" d="M286.77,507.079c4.444,0,8.047-3.014,8.047-6.733s-3.6-6.733-8.047-6.733-8.047,3.014-8.047,6.733S282.326,507.079,286.77,507.079Z" transform="translate(-132.225 -234.167)" fill="#fff" opacity="0.1"/>
    <path id="Path_318" data-name="Path 318" d="M286.77,504.269c4.444,0,8.047-3.014,8.047-6.733s-3.6-6.733-8.047-6.733-8.047,3.014-8.047,6.733S282.326,504.269,286.77,504.269Z" transform="translate(-132.225 -232.834)" fill="#d7ffee"/>
    <path id="Path_319" data-name="Path 319" d="M296.77,551.759c4.444,0,8.047-3.014,8.047-6.733s-3.6-6.733-8.047-6.733-8.047,3.014-8.047,6.733S292.326,551.759,296.77,551.759Z" transform="translate(-136.969 -255.363)" fill="#d7ffee"/>
    <path id="Path_320" data-name="Path 320" d="M296.77,551.759c4.444,0,8.047-3.014,8.047-6.733s-3.6-6.733-8.047-6.733-8.047,3.014-8.047,6.733S292.326,551.759,296.77,551.759Z" transform="translate(-136.969 -255.363)" fill="#fff" opacity="0.1"/>
    <path id="Path_321" data-name="Path 321" d="M296.77,548.949c4.444,0,8.047-3.014,8.047-6.733s-3.6-6.733-8.047-6.733-8.047,3.014-8.047,6.733S292.326,548.949,296.77,548.949Z" transform="translate(-136.969 -254.03)" fill="#d7ffee"/>
    <path id="Path_322" data-name="Path 322" d="M258.031,557.069c4.444,0,8.047-3.014,8.047-6.733s-3.6-6.733-8.047-6.733-8.047,3.014-8.047,6.733S253.587,557.069,258.031,557.069Z" transform="translate(-118.591 -257.882)" fill="#d7ffee"/>
    <path id="Path_323" data-name="Path 323" d="M258.031,557.069c4.444,0,8.047-3.014,8.047-6.733s-3.6-6.733-8.047-6.733-8.047,3.014-8.047,6.733S253.587,557.069,258.031,557.069Z" transform="translate(-118.591 -257.882)" fill="#fff" opacity="0.1"/>
    <path id="Path_324" data-name="Path 324" d="M258.031,554.259c4.444,0,8.047-3.014,8.047-6.733s-3.6-6.733-8.047-6.733-8.047,3.014-8.047,6.733S253.587,554.259,258.031,554.259Z" transform="translate(-118.591 -256.549)" fill="#d7ffee"/>
    <path id="Path_325" data-name="Path 325" d="M315.512,596.429c4.444,0,8.047-3.014,8.047-6.733s-3.6-6.733-8.047-6.733-8.047,3.014-8.047,6.733S311.068,596.429,315.512,596.429Z" transform="translate(-145.86 -276.554)" fill="#d7ffee"/>
    <path id="Path_326" data-name="Path 326" d="M315.512,596.429c4.444,0,8.047-3.014,8.047-6.733s-3.6-6.733-8.047-6.733-8.047,3.014-8.047,6.733S311.068,596.429,315.512,596.429Z" transform="translate(-145.86 -276.554)" fill="#fff" opacity="0.1"/>
    <path id="Path_327" data-name="Path 327" d="M315.512,593.619c4.444,0,8.047-3.014,8.047-6.733s-3.6-6.733-8.047-6.733-8.047,3.014-8.047,6.733S311.068,593.619,315.512,593.619Z" transform="translate(-145.86 -275.221)" fill="#d7ffee"/>
    <path id="Path_328" data-name="Path 328" d="M264.281,598c4.445,0,8.047-3.014,8.047-6.733s-3.6-6.733-8.047-6.733-8.047,3.014-8.047,6.733S259.837,598,264.281,598Z" transform="translate(-121.556 -277.299)" fill="#d7ffee"/>
    <path id="Path_329" data-name="Path 329" d="M264.281,598c4.445,0,8.047-3.014,8.047-6.733s-3.6-6.733-8.047-6.733-8.047,3.014-8.047,6.733S259.837,598,264.281,598Z" transform="translate(-121.556 -277.299)" fill="#fff" opacity="0.1"/>
    <path id="Path_330" data-name="Path 330" d="M264.281,595.179c4.445,0,8.047-3.014,8.047-6.733s-3.6-6.733-8.047-6.733-8.047,3.014-8.047,6.733S259.837,595.179,264.281,595.179Z" transform="translate(-121.556 -275.961)" fill="#d7ffee"/>
    <path id="Path_331" data-name="Path 331" d="M357.692,596.429c4.444,0,8.047-3.014,8.047-6.733s-3.6-6.733-8.047-6.733-8.047,3.014-8.047,6.733S353.248,596.429,357.692,596.429Z" transform="translate(-165.87 -276.554)" fill="#d7ffee"/>
    <path id="Path_332" data-name="Path 332" d="M357.692,596.429c4.444,0,8.047-3.014,8.047-6.733s-3.6-6.733-8.047-6.733-8.047,3.014-8.047,6.733S353.248,596.429,357.692,596.429Z" transform="translate(-165.87 -276.554)" fill="#fff" opacity="0.1"/>
    <path id="Path_333" data-name="Path 333" d="M357.692,593.619c4.444,0,8.047-3.014,8.047-6.733s-3.6-6.733-8.047-6.733-8.047,3.014-8.047,6.733S353.248,593.619,357.692,593.619Z" transform="translate(-165.87 -275.221)" fill="#d7ffee"/>
    <path id="Path_334" data-name="Path 334" d="M402.36,596.429c4.444,0,8.047-3.014,8.047-6.733s-3.6-6.733-8.047-6.733-8.048,3.014-8.048,6.733S397.915,596.429,402.36,596.429Z" transform="translate(-187.06 -276.554)" fill="#d7ffee"/>
    <path id="Path_335" data-name="Path 335" d="M402.36,596.429c4.444,0,8.047-3.014,8.047-6.733s-3.6-6.733-8.047-6.733-8.048,3.014-8.048,6.733S397.915,596.429,402.36,596.429Z" transform="translate(-187.06 -276.554)" fill="#fff" opacity="0.1"/>
    <path id="Path_336" data-name="Path 336" d="M402.36,593.619c4.444,0,8.047-3.014,8.047-6.733s-3.6-6.733-8.047-6.733-8.048,3.014-8.048,6.733S397.915,593.619,402.36,593.619Z" transform="translate(-187.06 -275.221)" fill="#d7ffee"/>
    <path id="Path_337" data-name="Path 337" d="M443.6,596.429c4.444,0,8.047-3.014,8.047-6.733s-3.6-6.733-8.047-6.733-8.047,3.014-8.047,6.733S439.158,596.429,443.6,596.429Z" transform="translate(-206.625 -276.554)" fill="#d7ffee"/>
    <path id="Path_338" data-name="Path 338" d="M443.6,596.429c4.444,0,8.047-3.014,8.047-6.733s-3.6-6.733-8.047-6.733-8.047,3.014-8.047,6.733S439.158,596.429,443.6,596.429Z" transform="translate(-206.625 -276.554)" fill="#fff" opacity="0.1"/>
    <path id="Path_339" data-name="Path 339" d="M443.6,593.619c4.444,0,8.047-3.014,8.047-6.733s-3.6-6.733-8.047-6.733-8.047,3.014-8.047,6.733S439.158,593.619,443.6,593.619Z" transform="translate(-206.625 -275.221)" fill="#d7ffee"/>
    <path id="Path_340" data-name="Path 340" d="M489.211,596.429c4.444,0,8.047-3.014,8.047-6.733s-3.6-6.733-8.047-6.733-8.047,3.014-8.047,6.733S484.767,596.429,489.211,596.429Z" transform="translate(-228.262 -276.554)" fill="#d7ffee"/>
    <path id="Path_341" data-name="Path 341" d="M489.211,596.429c4.444,0,8.047-3.014,8.047-6.733s-3.6-6.733-8.047-6.733-8.047,3.014-8.047,6.733S484.767,596.429,489.211,596.429Z" transform="translate(-228.262 -276.554)" fill="#fff" opacity="0.1"/>
    <path id="Path_342" data-name="Path 342" d="M489.211,593.619c4.444,0,8.047-3.014,8.047-6.733s-3.6-6.733-8.047-6.733-8.047,3.014-8.047,6.733S484.767,593.619,489.211,593.619Z" transform="translate(-228.262 -275.221)" fill="#d7ffee"/>
    <path id="Path_343" data-name="Path 343" d="M530.449,596.429c4.445,0,8.047-3.014,8.047-6.733s-3.6-6.733-8.047-6.733-8.047,3.014-8.047,6.733S526.005,596.429,530.449,596.429Z" transform="translate(-247.825 -276.554)" fill="#d7ffee"/>
    <path id="Path_344" data-name="Path 344" d="M530.449,596.429c4.445,0,8.047-3.014,8.047-6.733s-3.6-6.733-8.047-6.733-8.047,3.014-8.047,6.733S526.005,596.429,530.449,596.429Z" transform="translate(-247.825 -276.554)" fill="#fff" opacity="0.1"/>
    <path id="Path_345" data-name="Path 345" d="M530.449,593.619c4.445,0,8.047-3.014,8.047-6.733s-3.6-6.733-8.047-6.733-8.047,3.014-8.047,6.733S526.005,593.619,530.449,593.619Z" transform="translate(-247.825 -275.221)" fill="#d7ffee"/>
    <path id="Path_346" data-name="Path 346" d="M571.371,596.429c4.445,0,8.047-3.014,8.047-6.733s-3.6-6.733-8.047-6.733-8.047,3.014-8.047,6.733S566.927,596.429,571.371,596.429Z" transform="translate(-267.238 -276.554)" fill="#d7ffee"/>
    <path id="Path_347" data-name="Path 347" d="M571.371,596.429c4.445,0,8.047-3.014,8.047-6.733s-3.6-6.733-8.047-6.733-8.047,3.014-8.047,6.733S566.927,596.429,571.371,596.429Z" transform="translate(-267.238 -276.554)" fill="#fff" opacity="0.1"/>
    <path id="Path_348" data-name="Path 348" d="M571.371,593.619c4.445,0,8.047-3.014,8.047-6.733s-3.6-6.733-8.047-6.733-8.047,3.014-8.047,6.733S566.927,593.619,571.371,593.619Z" transform="translate(-267.238 -275.221)" fill="#d7ffee"/>
    <path id="Path_349" data-name="Path 349" d="M615.742,596.429c4.445,0,8.047-3.014,8.047-6.733s-3.6-6.733-8.047-6.733-8.047,3.014-8.047,6.733S611.3,596.429,615.742,596.429Z" transform="translate(-288.287 -276.554)" fill="#d7ffee"/>
    <path id="Path_350" data-name="Path 350" d="M615.742,596.429c4.445,0,8.047-3.014,8.047-6.733s-3.6-6.733-8.047-6.733-8.047,3.014-8.047,6.733S611.3,596.429,615.742,596.429Z" transform="translate(-288.287 -276.554)" fill="#fff" opacity="0.1"/>
    <path id="Path_351" data-name="Path 351" d="M615.742,593.619c4.445,0,8.047-3.014,8.047-6.733s-3.6-6.733-8.047-6.733-8.047,3.014-8.047,6.733S611.3,593.619,615.742,593.619Z" transform="translate(-288.287 -275.221)" fill="#d7ffee"/>
    <path id="Path_352" data-name="Path 352" d="M657.289,596.429c4.445,0,8.047-3.014,8.047-6.733s-3.6-6.733-8.047-6.733-8.047,3.014-8.047,6.733S652.845,596.429,657.289,596.429Z" transform="translate(-307.997 -276.554)" fill="#d7ffee"/>
    <path id="Path_353" data-name="Path 353" d="M657.289,596.429c4.445,0,8.047-3.014,8.047-6.733s-3.6-6.733-8.047-6.733-8.047,3.014-8.047,6.733S652.845,596.429,657.289,596.429Z" transform="translate(-307.997 -276.554)" fill="#fff" opacity="0.1"/>
    <path id="Path_354" data-name="Path 354" d="M657.289,593.619c4.445,0,8.047-3.014,8.047-6.733s-3.6-6.733-8.047-6.733-8.047,3.014-8.047,6.733S652.845,593.619,657.289,593.619Z" transform="translate(-307.997 -275.221)" fill="#d7ffee"/>
    <path id="Path_355" data-name="Path 355" d="M703.211,596.429c4.445,0,8.047-3.014,8.047-6.733s-3.6-6.733-8.047-6.733-8.047,3.014-8.047,6.733S698.767,596.429,703.211,596.429Z" transform="translate(-329.782 -276.554)" fill="#d7ffee"/>
    <path id="Path_356" data-name="Path 356" d="M703.211,596.429c4.445,0,8.047-3.014,8.047-6.733s-3.6-6.733-8.047-6.733-8.047,3.014-8.047,6.733S698.767,596.429,703.211,596.429Z" transform="translate(-329.782 -276.554)" fill="#fff" opacity="0.1"/>
    <path id="Path_357" data-name="Path 357" d="M703.211,593.619c4.445,0,8.047-3.014,8.047-6.733s-3.6-6.733-8.047-6.733-8.047,3.014-8.047,6.733S698.767,593.619,703.211,593.619Z" transform="translate(-329.782 -275.221)" fill="#d7ffee"/>
    <path id="Path_358" data-name="Path 358" d="M750.391,596.429c4.444,0,8.047-3.014,8.047-6.733s-3.6-6.733-8.047-6.733-8.047,3.014-8.047,6.733S745.947,596.429,750.391,596.429Z" transform="translate(-352.164 -276.554)" fill="#d7ffee"/>
    <path id="Path_359" data-name="Path 359" d="M750.391,596.429c4.444,0,8.047-3.014,8.047-6.733s-3.6-6.733-8.047-6.733-8.047,3.014-8.047,6.733S745.947,596.429,750.391,596.429Z" transform="translate(-352.164 -276.554)" fill="#fff" opacity="0.1"/>
    <path id="Path_360" data-name="Path 360" d="M750.391,593.619c4.444,0,8.047-3.014,8.047-6.733s-3.6-6.733-8.047-6.733-8.047,3.014-8.047,6.733S745.947,593.619,750.391,593.619Z" transform="translate(-352.164 -275.221)" fill="#d7ffee"/>
    <path id="Path_361" data-name="Path 361" d="M339.262,551.759c4.444,0,8.047-3.014,8.047-6.733s-3.6-6.733-8.047-6.733-8.047,3.014-8.047,6.733S334.818,551.759,339.262,551.759Z" transform="translate(-157.127 -255.363)" fill="#d7ffee"/>
    <path id="Path_362" data-name="Path 362" d="M339.262,551.759c4.444,0,8.047-3.014,8.047-6.733s-3.6-6.733-8.047-6.733-8.047,3.014-8.047,6.733S334.818,551.759,339.262,551.759Z" transform="translate(-157.127 -255.363)" fill="#fff" opacity="0.1"/>
    <path id="Path_363" data-name="Path 363" d="M339.262,548.949c4.444,0,8.047-3.014,8.047-6.733s-3.6-6.733-8.047-6.733-8.047,3.014-8.047,6.733S334.818,548.949,339.262,548.949Z" transform="translate(-157.127 -254.03)" fill="#d7ffee"/>
    <path id="Path_364" data-name="Path 364" d="M381.742,551.759c4.445,0,8.047-3.014,8.047-6.733s-3.6-6.733-8.047-6.733-8.047,3.014-8.047,6.733S377.3,551.759,381.742,551.759Z" transform="translate(-177.279 -255.363)" fill="#d7ffee"/>
    <path id="Path_365" data-name="Path 365" d="M381.742,551.759c4.445,0,8.047-3.014,8.047-6.733s-3.6-6.733-8.047-6.733-8.047,3.014-8.047,6.733S377.3,551.759,381.742,551.759Z" transform="translate(-177.279 -255.363)" fill="#fff" opacity="0.1"/>
    <path id="Path_366" data-name="Path 366" d="M381.742,548.949c4.445,0,8.047-3.014,8.047-6.733s-3.6-6.733-8.047-6.733-8.047,3.014-8.047,6.733S377.3,548.949,381.742,548.949Z" transform="translate(-177.279 -254.03)" fill="#d7ffee"/>
    <path id="Path_367" data-name="Path 367" d="M425.481,551.759c4.444,0,8.047-3.014,8.047-6.733s-3.6-6.733-8.047-6.733-8.047,3.014-8.047,6.733S421.037,551.759,425.481,551.759Z" transform="translate(-198.028 -255.363)" fill="#d7ffee"/>
    <path id="Path_368" data-name="Path 368" d="M425.481,551.759c4.444,0,8.047-3.014,8.047-6.733s-3.6-6.733-8.047-6.733-8.047,3.014-8.047,6.733S421.037,551.759,425.481,551.759Z" transform="translate(-198.028 -255.363)" fill="#fff" opacity="0.1"/>
    <path id="Path_369" data-name="Path 369" d="M425.481,548.949c4.444,0,8.047-3.014,8.047-6.733s-3.6-6.733-8.047-6.733-8.047,3.014-8.047,6.733S421.037,548.949,425.481,548.949Z" transform="translate(-198.028 -254.03)" fill="#d7ffee"/>
    <path id="Path_370" data-name="Path 370" d="M467.34,551.759c4.444,0,8.047-3.014,8.047-6.733s-3.6-6.733-8.047-6.733-8.047,3.014-8.047,6.733S462.9,551.759,467.34,551.759Z" transform="translate(-217.886 -255.363)" fill="#d7ffee"/>
    <path id="Path_371" data-name="Path 371" d="M467.34,551.759c4.444,0,8.047-3.014,8.047-6.733s-3.6-6.733-8.047-6.733-8.047,3.014-8.047,6.733S462.9,551.759,467.34,551.759Z" transform="translate(-217.886 -255.363)" fill="#fff" opacity="0.1"/>
    <path id="Path_372" data-name="Path 372" d="M467.34,548.949c4.444,0,8.047-3.014,8.047-6.733s-3.6-6.733-8.047-6.733-8.047,3.014-8.047,6.733S462.9,548.949,467.34,548.949Z" transform="translate(-217.886 -254.03)" fill="#d7ffee"/>
    <path id="Path_373" data-name="Path 373" d="M510.141,551.759c4.444,0,8.047-3.014,8.047-6.733s-3.6-6.733-8.047-6.733-8.047,3.014-8.047,6.733S505.7,551.759,510.141,551.759Z" transform="translate(-238.191 -255.363)" fill="#d7ffee"/>
    <path id="Path_374" data-name="Path 374" d="M510.141,551.759c4.444,0,8.047-3.014,8.047-6.733s-3.6-6.733-8.047-6.733-8.047,3.014-8.047,6.733S505.7,551.759,510.141,551.759Z" transform="translate(-238.191 -255.363)" fill="#fff" opacity="0.1"/>
    <path id="Path_375" data-name="Path 375" d="M510.141,548.949c4.444,0,8.047-3.014,8.047-6.733s-3.6-6.733-8.047-6.733-8.047,3.014-8.047,6.733S505.7,548.949,510.141,548.949Z" transform="translate(-238.191 -254.03)" fill="#d7ffee"/>
    <path id="Path_376" data-name="Path 376" d="M551.07,551.759c4.444,0,8.047-3.014,8.047-6.733s-3.6-6.733-8.047-6.733-8.047,3.014-8.047,6.733S546.626,551.759,551.07,551.759Z" transform="translate(-257.607 -255.363)" fill="#d7ffee"/>
    <path id="Path_377" data-name="Path 377" d="M551.07,551.759c4.444,0,8.047-3.014,8.047-6.733s-3.6-6.733-8.047-6.733-8.047,3.014-8.047,6.733S546.626,551.759,551.07,551.759Z" transform="translate(-257.607 -255.363)" fill="#fff" opacity="0.1"/>
    <path id="Path_378" data-name="Path 378" d="M551.07,548.949c4.444,0,8.047-3.014,8.047-6.733s-3.6-6.733-8.047-6.733-8.047,3.014-8.047,6.733S546.626,548.949,551.07,548.949Z" transform="translate(-257.607 -254.03)" fill="#d7ffee"/>
    <path id="Path_379" data-name="Path 379" d="M595.43,551.759c4.444,0,8.047-3.014,8.047-6.733s-3.6-6.733-8.047-6.733-8.047,3.014-8.047,6.733S590.986,551.759,595.43,551.759Z" transform="translate(-278.651 -255.363)" fill="#d7ffee"/>
    <path id="Path_380" data-name="Path 380" d="M595.43,551.759c4.444,0,8.047-3.014,8.047-6.733s-3.6-6.733-8.047-6.733-8.047,3.014-8.047,6.733S590.986,551.759,595.43,551.759Z" transform="translate(-278.651 -255.363)" fill="#fff" opacity="0.1"/>
    <path id="Path_381" data-name="Path 381" d="M595.43,548.949c4.444,0,8.047-3.014,8.047-6.733s-3.6-6.733-8.047-6.733-8.047,3.014-8.047,6.733S590.986,548.949,595.43,548.949Z" transform="translate(-278.651 -254.03)" fill="#d7ffee"/>
    <path id="Path_382" data-name="Path 382" d="M637.61,551.759c4.444,0,8.047-3.014,8.047-6.733s-3.6-6.733-8.047-6.733-8.048,3.014-8.048,6.733S633.165,551.759,637.61,551.759Z" transform="translate(-298.661 -255.363)" fill="#d7ffee"/>
    <path id="Path_383" data-name="Path 383" d="M637.61,551.759c4.444,0,8.047-3.014,8.047-6.733s-3.6-6.733-8.047-6.733-8.048,3.014-8.048,6.733S633.165,551.759,637.61,551.759Z" transform="translate(-298.661 -255.363)" fill="#fff" opacity="0.1"/>
    <path id="Path_384" data-name="Path 384" d="M637.61,548.949c4.444,0,8.047-3.014,8.047-6.733s-3.6-6.733-8.047-6.733-8.048,3.014-8.048,6.733S633.165,548.949,637.61,548.949Z" transform="translate(-298.661 -254.03)" fill="#d7ffee"/>
    <path id="Path_385" data-name="Path 385" d="M680.723,551.759c4.444,0,8.047-3.014,8.047-6.733s-3.6-6.733-8.047-6.733-8.047,3.014-8.047,6.733S676.279,551.759,680.723,551.759Z" transform="translate(-319.114 -255.363)" fill="#d7ffee"/>
    <path id="Path_386" data-name="Path 386" d="M680.723,551.759c4.444,0,8.047-3.014,8.047-6.733s-3.6-6.733-8.047-6.733-8.047,3.014-8.047,6.733S676.279,551.759,680.723,551.759Z" transform="translate(-319.114 -255.363)" fill="#fff" opacity="0.1"/>
    <path id="Path_387" data-name="Path 387" d="M680.723,548.949c4.444,0,8.047-3.014,8.047-6.733s-3.6-6.733-8.047-6.733-8.047,3.014-8.047,6.733S676.279,548.949,680.723,548.949Z" transform="translate(-319.114 -254.03)" fill="#d7ffee"/>
    <path id="Path_388" data-name="Path 388" d="M723.832,551.759c4.445,0,8.047-3.014,8.047-6.733s-3.6-6.733-8.047-6.733-8.047,3.014-8.047,6.733S719.388,551.759,723.832,551.759Z" transform="translate(-339.565 -255.363)" fill="#d7ffee"/>
    <path id="Path_389" data-name="Path 389" d="M723.832,551.759c4.445,0,8.047-3.014,8.047-6.733s-3.6-6.733-8.047-6.733-8.047,3.014-8.047,6.733S719.388,551.759,723.832,551.759Z" transform="translate(-339.565 -255.363)" fill="#fff" opacity="0.1"/>
    <path id="Path_390" data-name="Path 390" d="M723.832,548.949c4.445,0,8.047-3.014,8.047-6.733s-3.6-6.733-8.047-6.733-8.047,3.014-8.047,6.733S719.388,548.949,723.832,548.949Z" transform="translate(-339.565 -254.03)" fill="#d7ffee"/>
    <path id="Path_391" data-name="Path 391" d="M329.883,507.079c4.444,0,8.047-3.014,8.047-6.733s-3.6-6.733-8.047-6.733-8.047,3.014-8.047,6.733S325.439,507.079,329.883,507.079Z" transform="translate(-152.677 -234.167)" fill="#d7ffee"/>
    <path id="Path_392" data-name="Path 392" d="M329.883,507.079c4.444,0,8.047-3.014,8.047-6.733s-3.6-6.733-8.047-6.733-8.047,3.014-8.047,6.733S325.439,507.079,329.883,507.079Z" transform="translate(-152.677 -234.167)" fill="#fff" opacity="0.1"/>
    <path id="Path_393" data-name="Path 393" d="M329.883,504.269c4.444,0,8.047-3.014,8.047-6.733s-3.6-6.733-8.047-6.733-8.047,3.014-8.047,6.733S325.439,504.269,329.883,504.269Z" transform="translate(-152.677 -232.834)" fill="#d7ffee"/>
    <path id="Path_394" data-name="Path 394" d="M373,507.079c4.445,0,8.047-3.014,8.047-6.733s-3.6-6.733-8.047-6.733-8.047,3.014-8.047,6.733S368.556,507.079,373,507.079Z" transform="translate(-173.132 -234.167)" fill="#d7ffee"/>
    <path id="Path_395" data-name="Path 395" d="M373,507.079c4.445,0,8.047-3.014,8.047-6.733s-3.6-6.733-8.047-6.733-8.047,3.014-8.047,6.733S368.556,507.079,373,507.079Z" transform="translate(-173.132 -234.167)" fill="#fff" opacity="0.1"/>
    <path id="Path_396" data-name="Path 396" d="M373,504.269c4.445,0,8.047-3.014,8.047-6.733s-3.6-6.733-8.047-6.733-8.047,3.014-8.047,6.733S368.556,504.269,373,504.269Z" transform="translate(-173.132 -232.834)" fill="#d7ffee"/>
    <path id="Path_397" data-name="Path 397" d="M414.551,507.079c4.444,0,8.047-3.014,8.047-6.733s-3.6-6.733-8.047-6.733-8.047,3.014-8.047,6.733S410.107,507.079,414.551,507.079Z" transform="translate(-192.843 -234.167)" fill="#d7ffee"/>
    <path id="Path_398" data-name="Path 398" d="M414.551,507.079c4.444,0,8.047-3.014,8.047-6.733s-3.6-6.733-8.047-6.733-8.047,3.014-8.047,6.733S410.107,507.079,414.551,507.079Z" transform="translate(-192.843 -234.167)" fill="#fff" opacity="0.1"/>
    <path id="Path_399" data-name="Path 399" d="M414.551,504.269c4.444,0,8.047-3.014,8.047-6.733s-3.6-6.733-8.047-6.733-8.047,3.014-8.047,6.733S410.107,504.269,414.551,504.269Z" transform="translate(-192.843 -232.834)" fill="#d7ffee"/>
    <path id="Path_400" data-name="Path 400" d="M456.1,507.079c4.444,0,8.047-3.014,8.047-6.733s-3.6-6.733-8.047-6.733-8.047,3.014-8.047,6.733S451.658,507.079,456.1,507.079Z" transform="translate(-212.555 -234.167)" fill="#d7ffee"/>
    <path id="Path_401" data-name="Path 401" d="M456.1,507.079c4.444,0,8.047-3.014,8.047-6.733s-3.6-6.733-8.047-6.733-8.047,3.014-8.047,6.733S451.658,507.079,456.1,507.079Z" transform="translate(-212.555 -234.167)" fill="#fff" opacity="0.1"/>
    <path id="Path_402" data-name="Path 402" d="M456.1,504.269c4.444,0,8.047-3.014,8.047-6.733s-3.6-6.733-8.047-6.733-8.047,3.014-8.047,6.733S451.658,504.269,456.1,504.269Z" transform="translate(-212.555 -232.834)" fill="#d7ffee"/>
    <path id="Path_403" data-name="Path 403" d="M497.961,507.079c4.444,0,8.047-3.014,8.047-6.733s-3.6-6.733-8.047-6.733-8.047,3.014-8.047,6.733S493.517,507.079,497.961,507.079Z" transform="translate(-232.413 -234.167)" fill="#d7ffee"/>
    <path id="Path_404" data-name="Path 404" d="M497.961,507.079c4.444,0,8.047-3.014,8.047-6.733s-3.6-6.733-8.047-6.733-8.047,3.014-8.047,6.733S493.517,507.079,497.961,507.079Z" transform="translate(-232.413 -234.167)" fill="#fff" opacity="0.1"/>
    <path id="Path_405" data-name="Path 405" d="M497.961,504.269c4.444,0,8.047-3.014,8.047-6.733s-3.6-6.733-8.047-6.733-8.047,3.014-8.047,6.733S493.517,504.269,497.961,504.269Z" transform="translate(-232.413 -232.834)" fill="#d7ffee"/>
    <path id="Path_406" data-name="Path 406" d="M539.2,507.079c4.444,0,8.047-3.014,8.047-6.733s-3.6-6.733-8.047-6.733-8.047,3.014-8.047,6.733S534.755,507.079,539.2,507.079Z" transform="translate(-251.976 -234.167)" fill="#d7ffee"/>
    <path id="Path_407" data-name="Path 407" d="M539.2,507.079c4.444,0,8.047-3.014,8.047-6.733s-3.6-6.733-8.047-6.733-8.047,3.014-8.047,6.733S534.755,507.079,539.2,507.079Z" transform="translate(-251.976 -234.167)" fill="#fff" opacity="0.1"/>
    <path id="Path_408" data-name="Path 408" d="M539.2,504.269c4.444,0,8.047-3.014,8.047-6.733s-3.6-6.733-8.047-6.733-8.047,3.014-8.047,6.733S534.755,504.269,539.2,504.269Z" transform="translate(-251.976 -232.834)" fill="#d7ffee"/>
    <path id="Path_409" data-name="Path 409" d="M582.93,507.079c4.444,0,8.047-3.014,8.047-6.733s-3.6-6.733-8.047-6.733-8.047,3.014-8.047,6.733S578.486,507.079,582.93,507.079Z" transform="translate(-272.721 -234.167)" fill="#d7ffee"/>
    <path id="Path_410" data-name="Path 410" d="M582.93,507.079c4.444,0,8.047-3.014,8.047-6.733s-3.6-6.733-8.047-6.733-8.047,3.014-8.047,6.733S578.486,507.079,582.93,507.079Z" transform="translate(-272.721 -234.167)" fill="#fff" opacity="0.1"/>
    <path id="Path_411" data-name="Path 411" d="M582.93,504.269c4.444,0,8.047-3.014,8.047-6.733s-3.6-6.733-8.047-6.733-8.047,3.014-8.047,6.733S578.486,504.269,582.93,504.269Z" transform="translate(-272.721 -232.834)" fill="#d7ffee"/>
    <path id="Path_412" data-name="Path 412" d="M624.172,507.079c4.444,0,8.047-3.014,8.047-6.733s-3.6-6.733-8.047-6.733-8.047,3.014-8.047,6.733S619.728,507.079,624.172,507.079Z" transform="translate(-292.286 -234.167)" fill="#d7ffee"/>
    <path id="Path_413" data-name="Path 413" d="M624.172,507.079c4.444,0,8.047-3.014,8.047-6.733s-3.6-6.733-8.047-6.733-8.047,3.014-8.047,6.733S619.728,507.079,624.172,507.079Z" transform="translate(-292.286 -234.167)" fill="#fff" opacity="0.1"/>
    <path id="Path_414" data-name="Path 414" d="M624.172,504.269c4.444,0,8.047-3.014,8.047-6.733s-3.6-6.733-8.047-6.733-8.047,3.014-8.047,6.733S619.728,504.269,624.172,504.269Z" transform="translate(-292.286 -232.834)" fill="#d7ffee"/>
    <path id="Path_415" data-name="Path 415" d="M668.223,507.079c4.444,0,8.047-3.014,8.047-6.733s-3.6-6.733-8.047-6.733-8.047,3.014-8.047,6.733S663.779,507.079,668.223,507.079Z" transform="translate(-313.184 -234.167)" fill="#d7ffee"/>
    <path id="Path_416" data-name="Path 416" d="M668.223,507.079c4.444,0,8.047-3.014,8.047-6.733s-3.6-6.733-8.047-6.733-8.047,3.014-8.047,6.733S663.779,507.079,668.223,507.079Z" transform="translate(-313.184 -234.167)" fill="#fff" opacity="0.1"/>
    <path id="Path_417" data-name="Path 417" d="M668.223,504.269c4.444,0,8.047-3.014,8.047-6.733s-3.6-6.733-8.047-6.733-8.047,3.014-8.047,6.733S663.779,504.269,668.223,504.269Z" transform="translate(-313.184 -232.834)" fill="#d7ffee"/>
    <path id="Path_418" data-name="Path 418" d="M711.332,507.079c4.445,0,8.047-3.014,8.047-6.733s-3.6-6.733-8.047-6.733-8.047,3.014-8.047,6.733S706.888,507.079,711.332,507.079Z" transform="translate(-333.635 -234.167)" fill="#d7ffee"/>
    <path id="Path_419" data-name="Path 419" d="M711.332,507.079c4.445,0,8.047-3.014,8.047-6.733s-3.6-6.733-8.047-6.733-8.047,3.014-8.047,6.733S706.888,507.079,711.332,507.079Z" transform="translate(-333.635 -234.167)" fill="#fff" opacity="0.1"/>
    <path id="Path_420" data-name="Path 420" d="M711.332,504.269c4.445,0,8.047-3.014,8.047-6.733s-3.6-6.733-8.047-6.733-8.047,3.014-8.047,6.733S706.888,504.269,711.332,504.269Z" transform="translate(-333.635 -232.834)" fill="#d7ffee"/>
    <path id="Path_421" data-name="Path 421" d="M308.641,462.4c4.444,0,8.047-3.014,8.047-6.733s-3.6-6.733-8.047-6.733-8.047,3.014-8.047,6.733S304.2,462.4,308.641,462.4Z" transform="translate(-142.6 -212.971)" fill="#d7ffee"/>
    <path id="Path_422" data-name="Path 422" d="M308.641,462.4c4.444,0,8.047-3.014,8.047-6.733s-3.6-6.733-8.047-6.733-8.047,3.014-8.047,6.733S304.2,462.4,308.641,462.4Z" transform="translate(-142.6 -212.971)" fill="#fff" opacity="0.1"/>
    <path id="Path_423" data-name="Path 423" d="M308.641,459.589c4.444,0,8.047-3.014,8.047-6.733s-3.6-6.733-8.047-6.733-8.047,3.014-8.047,6.733S304.2,459.589,308.641,459.589Z" transform="translate(-142.6 -211.638)" fill="#d7ffee"/>
    <path id="Path_424" data-name="Path 424" d="M351.133,462.4c4.444,0,8.047-3.014,8.047-6.733s-3.6-6.733-8.047-6.733-8.047,3.014-8.047,6.733S346.689,462.4,351.133,462.4Z" transform="translate(-162.758 -212.971)" fill="#d7ffee"/>
    <path id="Path_425" data-name="Path 425" d="M351.133,462.4c4.444,0,8.047-3.014,8.047-6.733s-3.6-6.733-8.047-6.733-8.047,3.014-8.047,6.733S346.689,462.4,351.133,462.4Z" transform="translate(-162.758 -212.971)" fill="#fff" opacity="0.1"/>
    <path id="Path_426" data-name="Path 426" d="M351.133,459.589c4.444,0,8.047-3.014,8.047-6.733s-3.6-6.733-8.047-6.733-8.047,3.014-8.047,6.733S346.689,459.589,351.133,459.589Z" transform="translate(-162.758 -211.638)" fill="#d7ffee"/>
    <path id="Path_427" data-name="Path 427" d="M392.051,462.4c4.444,0,8.047-3.014,8.047-6.733s-3.6-6.733-8.047-6.733S384,451.947,384,455.666,387.607,462.4,392.051,462.4Z" transform="translate(-182.169 -212.971)" fill="#d7ffee"/>
    <path id="Path_428" data-name="Path 428" d="M392.051,462.4c4.444,0,8.047-3.014,8.047-6.733s-3.6-6.733-8.047-6.733S384,451.947,384,455.666,387.607,462.4,392.051,462.4Z" transform="translate(-182.169 -212.971)" fill="#fff" opacity="0.1"/>
    <path id="Path_429" data-name="Path 429" d="M392.051,459.589c4.444,0,8.047-3.014,8.047-6.733s-3.6-6.733-8.047-6.733S384,449.137,384,452.856,387.607,459.589,392.051,459.589Z" transform="translate(-182.169 -211.638)" fill="#d7ffee"/>
    <path id="Path_430" data-name="Path 430" d="M434.231,462.4c4.444,0,8.047-3.014,8.047-6.733s-3.6-6.733-8.047-6.733-8.047,3.014-8.047,6.733S429.787,462.4,434.231,462.4Z" transform="translate(-202.179 -212.971)" fill="#d7ffee"/>
    <path id="Path_431" data-name="Path 431" d="M434.231,462.4c4.444,0,8.047-3.014,8.047-6.733s-3.6-6.733-8.047-6.733-8.047,3.014-8.047,6.733S429.787,462.4,434.231,462.4Z" transform="translate(-202.179 -212.971)" fill="#fff" opacity="0.1"/>
    <path id="Path_432" data-name="Path 432" d="M434.231,459.589c4.444,0,8.047-3.014,8.047-6.733s-3.6-6.733-8.047-6.733-8.047,3.014-8.047,6.733S429.787,459.589,434.231,459.589Z" transform="translate(-202.179 -211.638)" fill="#d7ffee"/>
    <path id="Path_433" data-name="Path 433" d="M475.781,462.4c4.444,0,8.047-3.014,8.047-6.733s-3.6-6.733-8.047-6.733-8.047,3.014-8.047,6.733S471.337,462.4,475.781,462.4Z" transform="translate(-221.891 -212.971)" fill="#d7ffee"/>
    <path id="Path_434" data-name="Path 434" d="M475.781,462.4c4.444,0,8.047-3.014,8.047-6.733s-3.6-6.733-8.047-6.733-8.047,3.014-8.047,6.733S471.337,462.4,475.781,462.4Z" transform="translate(-221.891 -212.971)" fill="#fff" opacity="0.1"/>
    <path id="Path_435" data-name="Path 435" d="M475.781,459.589c4.444,0,8.047-3.014,8.047-6.733s-3.6-6.733-8.047-6.733-8.047,3.014-8.047,6.733S471.337,459.589,475.781,459.589Z" transform="translate(-221.891 -211.638)" fill="#d7ffee"/>
    <path id="Path_436" data-name="Path 436" d="M518.27,462.4c4.444,0,8.047-3.014,8.047-6.733s-3.6-6.733-8.047-6.733-8.047,3.014-8.047,6.733S513.826,462.4,518.27,462.4Z" transform="translate(-242.047 -212.971)" fill="#d7ffee"/>
    <path id="Path_437" data-name="Path 437" d="M518.27,462.4c4.444,0,8.047-3.014,8.047-6.733s-3.6-6.733-8.047-6.733-8.047,3.014-8.047,6.733S513.826,462.4,518.27,462.4Z" transform="translate(-242.047 -212.971)" fill="#fff" opacity="0.1"/>
    <path id="Path_438" data-name="Path 438" d="M518.27,459.589c4.444,0,8.047-3.014,8.047-6.733s-3.6-6.733-8.047-6.733-8.047,3.014-8.047,6.733S513.826,459.589,518.27,459.589Z" transform="translate(-242.047 -211.638)" fill="#d7ffee"/>
    <path id="Path_439" data-name="Path 439" d="M559.82,462.4c4.445,0,8.047-3.014,8.047-6.733s-3.6-6.733-8.047-6.733-8.047,3.014-8.047,6.733S555.376,462.4,559.82,462.4Z" transform="translate(-261.758 -212.971)" fill="#d7ffee"/>
    <path id="Path_440" data-name="Path 440" d="M559.82,462.4c4.445,0,8.047-3.014,8.047-6.733s-3.6-6.733-8.047-6.733-8.047,3.014-8.047,6.733S555.376,462.4,559.82,462.4Z" transform="translate(-261.758 -212.971)" fill="#fff" opacity="0.1"/>
    <path id="Path_441" data-name="Path 441" d="M559.82,459.589c4.445,0,8.047-3.014,8.047-6.733s-3.6-6.733-8.047-6.733-8.047,3.014-8.047,6.733S555.376,459.589,559.82,459.589Z" transform="translate(-261.758 -211.638)" fill="#d7ffee"/>
    <path id="Path_442" data-name="Path 442" d="M601.992,462.4c4.445,0,8.047-3.014,8.047-6.733s-3.6-6.733-8.047-6.733-8.047,3.014-8.047,6.733S597.548,462.4,601.992,462.4Z" transform="translate(-281.764 -212.971)" fill="#d7ffee"/>
    <path id="Path_443" data-name="Path 443" d="M601.992,462.4c4.445,0,8.047-3.014,8.047-6.733s-3.6-6.733-8.047-6.733-8.047,3.014-8.047,6.733S597.548,462.4,601.992,462.4Z" transform="translate(-281.764 -212.971)" fill="#fff" opacity="0.1"/>
    <path id="Path_444" data-name="Path 444" d="M601.992,459.589c4.445,0,8.047-3.014,8.047-6.733s-3.6-6.733-8.047-6.733-8.047,3.014-8.047,6.733S597.548,459.589,601.992,459.589Z" transform="translate(-281.764 -211.638)" fill="#d7ffee"/>
    <path id="Path_445" data-name="Path 445" d="M645.422,462.4c4.444,0,8.047-3.014,8.047-6.733s-3.6-6.733-8.047-6.733-8.047,3.014-8.047,6.733S640.978,462.4,645.422,462.4Z" transform="translate(-302.367 -212.971)" fill="#d7ffee"/>
    <path id="Path_446" data-name="Path 446" d="M645.422,462.4c4.444,0,8.047-3.014,8.047-6.733s-3.6-6.733-8.047-6.733-8.047,3.014-8.047,6.733S640.978,462.4,645.422,462.4Z" transform="translate(-302.367 -212.971)" fill="#fff" opacity="0.1"/>
    <path id="Path_447" data-name="Path 447" d="M645.422,459.589c4.444,0,8.047-3.014,8.047-6.733s-3.6-6.733-8.047-6.733-8.047,3.014-8.047,6.733S640.978,459.589,645.422,459.589Z" transform="translate(-302.367 -211.638)" fill="#d7ffee"/>
    <path id="Path_448" data-name="Path 448" d="M687.9,462.4c4.445,0,8.047-3.014,8.047-6.733s-3.6-6.733-8.047-6.733-8.047,3.014-8.047,6.733S683.458,462.4,687.9,462.4Z" transform="translate(-322.52 -212.971)" fill="#d7ffee"/>
    <path id="Path_449" data-name="Path 449" d="M687.9,462.4c4.445,0,8.047-3.014,8.047-6.733s-3.6-6.733-8.047-6.733-8.047,3.014-8.047,6.733S683.458,462.4,687.9,462.4Z" transform="translate(-322.52 -212.971)" fill="#fff" opacity="0.1"/>
    <path id="Path_450" data-name="Path 450" d="M687.9,459.589c4.445,0,8.047-3.014,8.047-6.733s-3.6-6.733-8.047-6.733-8.047,3.014-8.047,6.733S683.458,459.589,687.9,459.589Z" transform="translate(-322.52 -211.638)" fill="#d7ffee"/>
    <path id="Path_451" data-name="Path 451" d="M729.449,462.4c4.445,0,8.047-3.014,8.047-6.733s-3.6-6.733-8.047-6.733-8.047,3.014-8.047,6.733S725.005,462.4,729.449,462.4Z" transform="translate(-342.229 -212.971)" fill="#fff"/>
    <path id="Path_452" data-name="Path 452" d="M729.449,462.4c4.445,0,8.047-3.014,8.047-6.733s-3.6-6.733-8.047-6.733-8.047,3.014-8.047,6.733S725.005,462.4,729.449,462.4Z" transform="translate(-342.229 -212.971)" fill="#fff" opacity="0.1"/>
    <path id="Path_453" data-name="Path 453" d="M729.449,459.589c4.445,0,8.047-3.014,8.047-6.733s-3.6-6.733-8.047-6.733-8.047,3.014-8.047,6.733S725.005,459.589,729.449,459.589Z" transform="translate(-342.229 -211.638)" fill="#fff"/>
    <path id="Path_454" data-name="Path 454" d="M516.962,625.773H280.681a4.767,4.767,0,0,0-4.767,4.767v3.437a4.767,4.767,0,0,0,4.767,4.767H516.962a4.767,4.767,0,0,0,4.767-4.767V630.54A4.767,4.767,0,0,0,516.962,625.773Z" transform="translate(-130.892 -296.863)" fill="#d7ffee"/>
    <path id="Path_455" data-name="Path 455" d="M516.962,625.773H280.681a4.767,4.767,0,0,0-4.767,4.767v3.437a4.767,4.767,0,0,0,4.767,4.767H516.962a4.767,4.767,0,0,0,4.767-4.767V630.54A4.767,4.767,0,0,0,516.962,625.773Z" transform="translate(-130.892 -296.863)" fill="#fff" opacity="0.1"/>
    <path id="Path_456" data-name="Path 456" d="M516.962,623.893H280.681a4.767,4.767,0,0,0-4.767,4.767V632.1a4.767,4.767,0,0,0,4.767,4.767H516.962a4.767,4.767,0,0,0,4.767-4.767V628.66A4.767,4.767,0,0,0,516.962,623.893Z" transform="translate(-130.892 -295.971)" fill="#d7ffee"/>
    <path id="Path_457" data-name="Path 457" d="M517.73,312.046c0,13.876-43.92,28.735-93.437,28.735s-86.2-16.01-86.2-29.886,36.693-20.362,86.2-20.362S517.73,298.17,517.73,312.046Z" transform="translate(-160.39 -137.827)" fill="#fff" opacity="0.1"/>
    <path id="Path_458" data-name="Path 458" d="M757.755,229.827c2.993,0,5.419-5.991,5.419-13.382s-2.426-13.382-5.419-13.382-5.419,5.991-5.419,13.382S754.762,229.827,757.755,229.827Z" transform="translate(-356.904 -96.332)" fill="#464353"/>
    <path id="Path_459" data-name="Path 459" d="M252.9,229.827c2.993,0,5.419-5.991,5.419-13.382s-2.426-13.382-5.419-13.382-5.419,5.991-5.419,13.382S249.91,229.827,252.9,229.827Z" transform="translate(-117.405 -96.332)" fill="#464353"/>
    <path id="Path_460" data-name="Path 460" d="M526.7,222.433H265.293v3.942H526.7Z" transform="translate(-125.854 -105.521)" fill="#fff" opacity="0.1"/>
    <path id="Path_461" data-name="Path 461" d="M526.7,221.183H265.293v3.942H526.7Z" transform="translate(-125.854 -104.928)" fill="#464353"/>
    <path id="Path_462" data-name="Path 462" d="M516.291,230.531c-2.139-.657-6.076,12.315-6.076,12.315H522.2S518.43,231.188,516.291,230.531Zm-.168,1.64a1.148,1.148,0,1,0,.005,0Zm.137,3.711c1.4.342,3.889,6.47,3.889,6.47h-7.884s2.6-6.817,4.026-6.47Z" transform="translate(-242.043 -109.351)" fill="#464353"/>
    <path id="Path_463" data-name="Path 463" d="M522.976,338.07h-305.9q.673-6.423,1.577-12.819l7.732-53.864A28.384,28.384,0,0,1,254.45,247.1h11.742a27.6,27.6,0,0,1,16.509,5.556c12.163,9.077,46.716,15.626,87.45,15.626s75.3-6.528,87.492-15.626a27.6,27.6,0,0,1,16.509-5.556h19.022a17,17,0,0,1,16.746,14.055L520.3,320.026Q521.878,329.035,522.976,338.07Z" transform="translate(-102.979 -117.224)" fill="#fff" opacity="0.03"/>
    <path id="Path_464" data-name="Path 464" d="M458.633,505.016s-6.029-11.038-5.009-12.814a23.983,23.983,0,0,0,1.761-4.389s2.229-1.524,2.229-2.155,1.761-2.06,2.691-2.686.463-3.585,0-3.942a7.942,7.942,0,0,1-1.2-1.614s.641-1.792,0-2.328.095-1.051,0-1.614a22.9,22.9,0,0,1,0-2.507,4.058,4.058,0,0,0-2.371-1.724l-.068-.284-.4-1.671s1.924-3.679-1.2-5.634a6.22,6.22,0,0,0-.694-.368v-.242a15.705,15.705,0,0,0-.457-2.833c-.163-.526-.373-.867-.652-.788a.431.431,0,0,0-.173.1,1.915,1.915,0,0,0-.331.394,6.709,6.709,0,0,0-.736,2.05,11.728,11.728,0,0,0-.21,1.288,6.869,6.869,0,0,0-.357.8c-.378.983-.825,2.691,0,3.953.689,1.051,1.608,2.544,2.281,3.616v.037l.042.063-.068.047v.163l.058.9.526,7.805a3.17,3.17,0,0,0-.473-.1,3.929,3.929,0,0,0-.694-.047c-.452-1.776-1.7-3.437-1.918-5.293a3.934,3.934,0,0,1-.037-.557c0-1.172.31-2.344.284-3.511a5.264,5.264,0,0,0,0-.646h0v-.179a5.256,5.256,0,0,0-2.87-3.995c-.526-.268-1.12-.447-1.645-.741-1.209-.678-1.982-1.9-3.08-2.738a3.389,3.389,0,0,0-2.949-.641,13.429,13.429,0,0,0-1.44.3h0a12.939,12.939,0,0,0-3.285,1.361c-.137.084-.279.168-.41.268a1.831,1.831,0,0,0-.662.773,2.053,2.053,0,0,0-.105.836v.615c-.063,3.427-3.758,6.092-4.063,9.461v.878c.053,1.472.815,2.838.957,4.3v.389a6.519,6.519,0,0,1-.378,1.971,5.647,5.647,0,0,0-1.335.526,8.286,8.286,0,0,0-3.889,4.357,6.312,6.312,0,0,0-.284,1.913,40.035,40.035,0,0,1-.625,6.833,13.449,13.449,0,0,1-.394,1.682.371.371,0,0,0,0,.163l-.441,5.782-.084,1.02-.11,1.451s.032.089.079.237.121.4.179.667a3.653,3.653,0,0,1,.058,1.5,1.048,1.048,0,0,1-.315.526l-.037.042a4.449,4.449,0,0,0-.336,1.472c-.042.3-.074.636-.11,1-.216,2.281-.352,5.7-.431,8.531s-.105,4.993-.105,4.993a5.649,5.649,0,0,0,1.151.568,2.365,2.365,0,0,0-.089.237,11,11,0,0,0-.7,2.943,5.141,5.141,0,0,0,3.348,5.661,4.654,4.654,0,0,0,.578.195,1.826,1.826,0,0,0,1.466-.089v.373c.032.526.058,1,.068,1.4.095,2.507.715,6.9.715,6.9a9.057,9.057,0,0,1,.026,2.334,12.451,12.451,0,0,0,0,2.686s.652,1.051,0,1.614-.831,3.227-.647,3.585a.19.19,0,0,0,0,.042c.142.888-.662,14.118-.662,14.118s-.757,2.023-1.356,4.126-1.051,4.168-.489,4.562a4.465,4.465,0,0,0,1.7.457v.268a7.81,7.81,0,0,1-.373,2.223,25.7,25.7,0,0,0-.657,4.73v.168a15.334,15.334,0,0,0-.694,2.008s-2.05,5.135-1.356,6.481a1.043,1.043,0,0,0,.258.315h0a.383.383,0,0,0,.068.063c.988.789,3.464.957,4.363.994l-.032,1.272v.089H431.2v-.032c0-.163.026-.9.063-1.887v-.978a7.885,7.885,0,0,0,.526-2.865,12.467,12.467,0,0,1,.452-3.322,8.923,8.923,0,0,1,.594-1.619,7.39,7.39,0,0,0-.147-3.3,2.293,2.293,0,0,0-.421-.741,1.16,1.16,0,0,0,0-.137V579.2a12.114,12.114,0,0,1,.273-2.749.1.1,0,0,1,0-.042.8.8,0,0,1,.053-.221v-.047h.378c1.162.037,2.018.037,2.018.037a42.994,42.994,0,0,0,.836-6.833v-.279a26.569,26.569,0,0,1,.563-4.83l.741-7.253a3.881,3.881,0,0,1,0-2.155c.231-.526.7-1.577,1.051-2.286.152-.331.279-.589.331-.7v-.058a1.549,1.549,0,0,1-.331-.168h0c-.3-.2-.573-.6.331-1.177,1.393-.9.93-3.154.93-3.154a1.612,1.612,0,0,1,.074-1.524c.484-.715,0-3.406,0-3.406a11.131,11.131,0,0,0,.951-2.239c.347-1.051,1.219-6.307,1.629-8.846.137-.83.221-1.367.221-1.367v.273l.116,1.193v.158l.21,2.26a69.458,69.458,0,0,1,.163,8.268.113.113,0,0,1,0,.042,2.588,2.588,0,0,1-.158.7c-.489,1.12-.4,5.55-.373,6.528v.2a3.451,3.451,0,0,0-.263,1.514h0a.994.994,0,0,0,.168.452,1.136,1.136,0,0,1,.168.7h0v.31a5.992,5.992,0,0,1-.326,1.214,4.084,4.084,0,0,0-.31,1.992.7.7,0,0,0,.126.242.6.6,0,0,1,.068.258h0c.173,1.445-.273,7.821-.526,11.306-.105,1.377-.184,2.307-.184,2.307l-.736,7.616.074.047c.084.063.242.163.452.289l-.031.231c-.105.736-.247,1.577-.4,2.239a1.359,1.359,0,0,0-.037.142,2.064,2.064,0,0,0-.788.315c-1.577,2.775-.872,4.972,0,5.613a2.236,2.236,0,0,1,.526,1.309l.215,2.765v.321a.808.808,0,0,0,.042.252l.068.836.089,1.167h.71v-1.33h.042c1.125.042,2.933.089,3.727.026h.21a.408.408,0,0,0,.126-.037c.415-.2,1.461-3.154.526-3.826s-1.146-2.565-1.146-2.565c-.084-.252-.163-.489-.247-.715a1.311,1.311,0,0,1,0-.142,11.818,11.818,0,0,1,.11-2.46,19.575,19.575,0,0,0,.247-2.938v-.273a3.138,3.138,0,0,0,.478-.152h.037a3.405,3.405,0,0,0,.8-.473l2.6-11.647.273-1.356,1.577-7.7s-.552-2.686,0-3.154c.205-.163.263-.852.247-1.661a26.957,26.957,0,0,0-.247-3.154s.741-1.162,1.114-1.882a5.839,5.839,0,0,0,0-2.6l.741-4.3a40.6,40.6,0,0,1,2.88-9.414c1.5-3.154.526-11.705-.436-16.257l-.079-.342,1.624-.788.226-.105c.762-.357,1.577-.725,2.292-1.051h.047a16.731,16.731,0,0,1,1.577-.594,2.278,2.278,0,0,1,.489-.1C462.533,511.818,458.633,505.016,458.633,505.016ZM429.609,519.6h.384c-.047.084-.089.168-.131.258a1.311,1.311,0,0,0-.074.152,8.656,8.656,0,0,0-.378.888c.042-.321.095-.668.152-1.051Zm-1.051,5.592v-.032a.118.118,0,0,0-.006-.054.114.114,0,0,0-.031-.046l-.063-.2c.131-.042.268-.084.4-.137v.074c0,.026-.026.2-.037.3v.279c0,.079-.042.3-.058.447l-.126-.4c-.032-.095-.053-.168-.079-.237Z" transform="translate(-200.832 -216.993)" fill="#fff"/>
    <path id="Path_465" data-name="Path 465" d="M481.031,471.012l-2.313.825-.841-1.4c-.646-1.051-1.54-2.539-2.2-3.606-1.162-1.876.357-4.73.357-4.73s.268-2.859,1.251-3.753,1.251,3.753,1.251,3.753c3.926,1.782,1.824,5.981,1.824,5.981l.378,1.666Z" transform="translate(-225.453 -217.384)" fill="#be6f72"/>
    <path id="Path_466" data-name="Path 466" d="M483.408,481.348l-2.313.825-.841-1.4v-.121a4.046,4.046,0,0,1,2.875-.568Z" transform="translate(-227.83 -227.721)" fill="#fff" opacity="0.1"/>
    <path id="Path_467" data-name="Path 467" d="M479.133,490.99l1.161-.983-.583-8.841a3.68,3.68,0,0,1,5.224,1.183,22.807,22.807,0,0,0,0,2.5c.089.526-.625,1.051,0,1.577s0,2.323,0,2.323a8.064,8.064,0,0,0,1.151,1.608c.447.357.894,3.306,0,3.931s-2.591,2.055-2.591,2.681-2.139,2.139-2.139,2.139l-1.887-2.491Z" transform="translate(-227.298 -227.965)" fill="#fff"/>
    <path id="Path_468" data-name="Path 468" d="M428.443,592.273c-4.331-1.834-3.369-6.307-2.554-8.578a12.887,12.887,0,0,1,.573-1.335l2.428-1.477s.494,1.267,1.025,2.964C431.145,587.768,432.559,594.018,428.443,592.273Z" transform="translate(-201.707 -275.568)" fill="#be6f72"/>
    <path id="Path_469" data-name="Path 469" d="M437.595,679.376a7.252,7.252,0,0,0-.647,1.808,12.828,12.828,0,0,0-.268,3.075,11.682,11.682,0,0,0,.079,1.183l-4.825,3.317s.026-.389.074-.962a26.562,26.562,0,0,1,.631-4.7,7.9,7.9,0,0,0,.363-2.218c.074-.92.105-1.771.105-1.771S438.9,676.932,437.595,679.376Z" transform="translate(-204.907 -321.742)" fill="#be6f72"/>
    <path id="Path_470" data-name="Path 470" d="M460.1,684.556s0,.92-.032,2a20.6,20.6,0,0,1-.231,2.927,11.673,11.673,0,0,0-.11,2.449c.032,1.051.11,2.034.11,2.034s-4.925-4.652-4.426-5.02a2.337,2.337,0,0,0,.394-1.051c.147-.652.284-1.5.384-2.234.121-.867.194-1.577.194-1.577Z" transform="translate(-216.028 -324.525)" fill="#be6f72"/>
    <path id="Path_471" data-name="Path 471" d="M438.559,679.376a7.272,7.272,0,0,0-.646,1.808,38.852,38.852,0,0,1-3.947-.3c.074-.92.105-1.771.105-1.771S439.862,676.932,438.559,679.376Z" transform="translate(-205.871 -321.742)" fill="#fff" opacity="0.1"/>
    <path id="Path_472" data-name="Path 472" d="M460.833,684.58s0,.92-.031,2a5.355,5.355,0,0,1-3.879-.867c.121-.867.194-1.577.194-1.577Z" transform="translate(-216.761 -324.549)" fill="#fff" opacity="0.1"/>
    <path id="Path_473" data-name="Path 473" d="M458.391,580.844a41.629,41.629,0,0,0-2.77,9.382l-.715,4.284a6.067,6.067,0,0,1,0,2.591c-.357.715-1.051,1.876-1.051,1.876s.526,4.378,0,4.825,0,3.122,0,3.122l-1.787,9.025-2.5,11.595c-2.413,1.966-5.619-.526-5.619-.526l.71-7.595s1.051-13.308.625-13.844.179-2.229.179-2.229.625-1.608.179-2.234.089-1.966.089-1.966-.179-5.451.357-6.7,0-8.988,0-8.988l-.226-2.407-.121-1.335v-.131l-.215,1.367c-.394,2.518-1.235,7.742-1.577,8.82a11.131,11.131,0,0,1-.92,2.229s.468,2.681,0,3.4a1.662,1.662,0,0,0-.068,1.519s.447,2.234-.893,3.154,0,1.34,0,1.34-.983,2.144-1.34,3.038a3.933,3.933,0,0,0,0,2.139l-.715,7.238a26.271,26.271,0,0,0-.526,5.093,44.9,44.9,0,0,1-.8,6.786s-6.875,0-7.937-.8,1.777-8.662,1.777-8.662.8-13.755.625-14.112,0-3.038.625-3.574,0-1.608,0-1.608a13.14,13.14,0,0,1,0-2.681,9.7,9.7,0,0,0-.032-2.323s-.594-4.373-.683-6.875-.526-8.131-.526-8.131.463-3.474.526-5.135a5.967,5.967,0,0,1,.636-2.1,19.213,19.213,0,0,1,1.325-2.339s21.171-6.25,22.075-5.624a8.061,8.061,0,0,1,.915,2.912C458.911,569.2,459.836,577.691,458.391,580.844Z" transform="translate(-204.233 -266.462)" fill="#fff"/>
    <path id="Path_474" data-name="Path 474" d="M458.391,580.844a41.629,41.629,0,0,0-2.77,9.382l-.715,4.284a6.067,6.067,0,0,1,0,2.591c-.357.715-1.051,1.876-1.051,1.876s.526,4.378,0,4.825,0,3.122,0,3.122l-1.787,9.025-2.5,11.595c-2.413,1.966-5.619-.526-5.619-.526l.71-7.595s1.051-13.308.625-13.844.179-2.229.179-2.229.625-1.608.179-2.234.089-1.966.089-1.966-.179-5.451.357-6.7,0-8.988,0-8.988l-.226-2.407-.121-1.335v-.131l-.215,1.367c-.394,2.518-1.235,7.742-1.577,8.82a11.131,11.131,0,0,1-.92,2.229s.468,2.681,0,3.4a1.662,1.662,0,0,0-.068,1.519s.447,2.234-.893,3.154,0,1.34,0,1.34-.983,2.144-1.34,3.038a3.933,3.933,0,0,0,0,2.139l-.715,7.238a26.271,26.271,0,0,0-.526,5.093,44.9,44.9,0,0,1-.8,6.786s-6.875,0-7.937-.8,1.777-8.662,1.777-8.662.8-13.755.625-14.112,0-3.038.625-3.574,0-1.608,0-1.608a13.14,13.14,0,0,1,0-2.681,9.7,9.7,0,0,0-.032-2.323s-.594-4.373-.683-6.875-.526-8.131-.526-8.131.463-3.474.526-5.135a5.967,5.967,0,0,1,.636-2.1,19.213,19.213,0,0,1,1.325-2.339s21.171-6.25,22.075-5.624a8.061,8.061,0,0,1,.915,2.912C458.911,569.2,459.836,577.691,458.391,580.844Z" transform="translate(-204.233 -266.462)" fill="#fff" opacity="0.15"/>
    <path id="Path_475" data-name="Path 475" d="M453.181,483.154a6.165,6.165,0,1,0-6.165-6.165A6.165,6.165,0,0,0,453.181,483.154Z" transform="translate(-212.062 -223.356)" fill="#a1616a"/>
    <path id="Path_476" data-name="Path 476" d="M460.839,564.645c-.71.363-1.183.615-1.183.615s-9.987,4.731-12.856,4.468c-2.2-.21-7.821-.095-10.265-.032a19.213,19.213,0,0,1,1.324-2.339s21.171-6.25,22.075-5.624A9.216,9.216,0,0,1,460.839,564.645Z" transform="translate(-207.09 -266.462)" fill="#fff" opacity="0.1"/>
    <path id="Path_477" data-name="Path 477" d="M439.687,499.861s-5.719.893-7.054,1.787-4.021,2.591-4.021,6.249a35.565,35.565,0,0,1-.983,8.489c-.357,1.051,5.629,9.734,5.629,9.734l-2.144,13.14s8.583-.268,11.437,0,12.856-4.468,12.856-4.468,5.892-3.122,7.143-3.211-2.5-6.88-2.5-6.88-5.782-10.985-4.82-12.772a24.454,24.454,0,0,0,1.7-4.378l-1.051-9.109a3.507,3.507,0,0,0-2.949.447c-1.34.983-5.9.447-5.9.447Z" transform="translate(-202.858 -236.389)" fill="#fff"/>
    <path id="Path_478" data-name="Path 478" d="M428.681,527.541l-2.234.625-.62,8.41s.8,2.234,0,2.949-.983,15.989-.983,15.989a5.828,5.828,0,0,0,5.624.447s-.447-1.7.893-7.884a48.633,48.633,0,0,0,1.33-9.256s0-7.679.625-8.935,0-4.378,0-4.378-1.251-1.7-1.162-2.323S428.681,527.541,428.681,527.541Z" transform="translate(-201.544 -248.17)" fill="#fff" opacity="0.1"/>
    <path id="Path_479" data-name="Path 479" d="M430.549,583.847a5.694,5.694,0,0,1-4.026-.152,13.109,13.109,0,0,1,.573-1.335l2.428-1.477S430.018,582.15,430.549,583.847Z" transform="translate(-202.34 -275.568)" fill="#fff" opacity="0.1"/>
    <path id="Path_480" data-name="Path 480" d="M428.424,527.541l-2.234.625-.625,8.41s.8,2.234,0,2.949-.983,15.989-.983,15.989a5.838,5.838,0,0,0,5.629.447s-.447-1.7.894-7.884a49.033,49.033,0,0,0,1.335-9.256s0-7.679.625-8.935,0-4.378,0-4.378-1.246-1.7-1.156-2.323S428.424,527.541,428.424,527.541Z" transform="translate(-201.419 -248.17)" fill="#fff"/>
    <path id="Path_481" data-name="Path 481" d="M471.28,534.073s-1.162,9.987-4.557,11.879C466.749,545.952,474.318,543.807,471.28,534.073Z" transform="translate(-221.411 -253.361)" fill="#fff" opacity="0.1"/>
    <path id="Path_482" data-name="Path 482" d="M442.934,535.773s4.2,2.055,3.217,3.479S442.934,535.773,442.934,535.773Z" transform="translate(-210.126 -254.168)" fill="#fff" opacity="0.1"/>
    <path id="Path_483" data-name="Path 483" d="M442.934,543.583s2.681,2.77,2.144,3.753S442.934,543.583,442.934,543.583Z" transform="translate(-210.126 -257.873)" fill="#fff" opacity="0.1"/>
    <path id="Path_484" data-name="Path 484" d="M484.062,499.913a9.4,9.4,0,0,1,1.146,2.949C485.3,504.023,484.062,499.913,484.062,499.913Z" transform="translate(-229.636 -237.156)" fill="#fff" opacity="0.1"/>
    <path id="Path_485" data-name="Path 485" d="M484.062,495.144s.526-.447,1.871,0S484.062,495.144,484.062,495.144Z" transform="translate(-229.636 -234.799)" fill="#fff" opacity="0.1"/>
    <path id="Path_486" data-name="Path 486" d="M467.224,592.922a12.386,12.386,0,0,1-6.528-.836l-1.13,2.88-.121-1.335c.184-1.12.526-2.318,1.251-2.628a10.81,10.81,0,0,0,6.528,1.919Z" transform="translate(-217.958 -280.368)" fill="#fff" opacity="0.1"/>
    <path id="Path_487" data-name="Path 487" d="M439.4,601.793s5.493,1.151,7.033.936Z" transform="translate(-208.447 -285.487)" fill="#fff" opacity="0.1"/>
    <path id="Path_488" data-name="Path 488" d="M440.473,604.525a11.408,11.408,0,0,1,3.516.368Z" transform="translate(-208.958 -286.779)" fill="#fff" opacity="0.1"/>
    <path id="Path_489" data-name="Path 489" d="M440.984,606.373a20.5,20.5,0,0,0,3.248.436Z" transform="translate(-209.2 -287.66)" fill="#fff" opacity="0.1"/>
    <path id="Path_490" data-name="Path 490" d="M440.773,629.182c.105-.068,4.694-1.135,5.256-.368Z" transform="translate(-209.1 -298.175)" fill="#fff" opacity="0.1"/>
    <path id="Path_491" data-name="Path 491" d="M440.773,632.255s3.989-.468,4.089,0S440.773,632.255,440.773,632.255Z" transform="translate(-209.1 -299.84)" fill="#fff" opacity="0.1"/>
    <path id="Path_492" data-name="Path 492" d="M440.773,634.232s4.257-.872,4.73-.667S440.773,634.232,440.773,634.232Z" transform="translate(-209.1 -300.545)" fill="#fff" opacity="0.1"/>
    <path id="Path_493" data-name="Path 493" d="M436.759,690.37l-4.825,3.317s.026-.389.074-.962a13.226,13.226,0,0,1,2.47-4.031,2.018,2.018,0,0,1,2.2.494A11.679,11.679,0,0,0,436.759,690.37Z" transform="translate(-204.907 -326.66)" fill="#fff" opacity="0.1"/>
    <path id="Path_494" data-name="Path 494" d="M435.355,693.449a11.981,11.981,0,0,0-1,4.925,7.593,7.593,0,0,1-1.051,3.968,3.785,3.785,0,0,1-.336.484s-3.353,0-4.525-1a1.141,1.141,0,0,1-.31-.373c-.673-1.34,1.3-6.465,1.3-6.465a14.224,14.224,0,0,1,3.154-6.06C436.359,687.957,435.355,693.449,435.355,693.449Z" transform="translate(-203.035 -326.769)" fill="#d7ffee"/>
    <path id="Path_495" data-name="Path 495" d="M433.757,707.939a3.907,3.907,0,0,1-.336.484s-3.353,0-4.525-1c.578-1.908,2.418-7.684,3.28-6.7S433.562,706.062,433.757,707.939Z" transform="translate(-203.465 -332.366)" fill="#fff" opacity="0.1"/>
    <path id="Path_496" data-name="Path 496" d="M437.055,701.084l-.231,8.662h1.125s.179-7.59.683-8.652S437.055,701.084,437.055,701.084Z" transform="translate(-207.227 -332.37)" fill="#d7ffee"/>
    <path id="Path_497" data-name="Path 497" d="M459.837,697.346s-4.925-4.652-4.426-5.019a2.328,2.328,0,0,0,.394-1.051c.946-.168,2.565.232,3.921,4.01C459.758,696.363,459.837,697.346,459.837,697.346Z" transform="translate(-216.028 -327.922)" fill="#fff" opacity="0.1"/>
    <path id="Path_498" data-name="Path 498" d="M459.46,702.687a.707.707,0,0,1-.121.037,34.331,34.331,0,0,1-3.905,0,.846.846,0,0,1-.82-.841v-1.135c-.058-1.319-.221-2.891-.689-3.248-.836-.636-1.5-2.828,0-5.592,0,0,2.88-2.2,4.956,4.41a4.4,4.4,0,0,0,1.1,2.56C460.89,699.549,459.86,702.487,459.46,702.687Z" transform="translate(-214.916 -328.07)" fill="#d7ffee"/>
    <path id="Path_499" data-name="Path 499" d="M460.768,707.749a34.331,34.331,0,0,1-3.905,0,.846.846,0,0,1-.82-.841v-1.135c.363-1.577.883-3.248,1.577-3.621C457.572,702.146,459.607,701.914,460.768,707.749Z" transform="translate(-216.344 -333.095)" fill="#fff" opacity="0.1"/>
    <path id="Path_500" data-name="Path 500" d="M455.383,701.223l.536,7.2h.688v-7.811Z" transform="translate(-216.031 -332.367)" fill="#d7ffee"/>
    <path id="Path_501" data-name="Path 501" d="M447.526,463.863a12.285,12.285,0,0,0-5.5,1.766,2.284,2.284,0,0,0-1.051,1.051,3.491,3.491,0,0,0-.084,1.283c.058,3.679-4.063,6.491-3.932,10.181.053,1.466.788,2.828.92,4.289.226,2.434-1.214,4.678-2.6,6.7a5.532,5.532,0,0,0,3.916-1.3,29.679,29.679,0,0,1,.526,14.969H441.7a1.527,1.527,0,0,1,.578.074,1.366,1.366,0,0,1,.457.342c1.845,1.834,3.085,4.552,2.376,7.064l4.2-1.577a12.614,12.614,0,0,0,2.907-1.382,4.2,4.2,0,0,0,1.792-2.586c.11-.641.079-1.414.6-1.787a3.418,3.418,0,0,1,.83-.3c1.156-.41,1.666-1.745,1.9-2.943a16.818,16.818,0,0,0,.268-4.478c-.184-2.507-.925-5.056-.315-7.5.347-1.372,1.114-2.628,1.177-4.073.1-2.339-1.729-4.357-2-6.686-.189-1.619.394-3.259.205-4.883a5.256,5.256,0,0,0-2.759-3.984c-.526-.268-1.083-.447-1.577-.736-1.167-.678-1.908-1.9-2.964-2.733s-2.823-1.151-3.616-.063Z" transform="translate(-206.497 -220.054)" fill="#fff" opacity="0.1"/>
    <path id="Path_502" data-name="Path 502" d="M447.526,463.353a12.286,12.286,0,0,0-5.5,1.766,2.284,2.284,0,0,0-1.051,1.051,3.49,3.49,0,0,0-.084,1.282c.058,3.679-4.063,6.491-3.932,10.181.053,1.466.788,2.833.92,4.289.226,2.439-1.214,4.678-2.6,6.7a5.535,5.535,0,0,0,3.937-1.282,29.679,29.679,0,0,1,.526,14.969h1.976a1.519,1.519,0,0,1,.578.074,1.373,1.373,0,0,1,.457.342c1.845,1.834,3.085,4.552,2.376,7.064l4.2-1.577a12.614,12.614,0,0,0,2.907-1.382,4.2,4.2,0,0,0,1.792-2.586c.11-.641.079-1.414.6-1.787a3.418,3.418,0,0,1,.83-.3c1.156-.41,1.666-1.745,1.9-2.943a16.818,16.818,0,0,0,.268-4.478c-.184-2.507-.925-5.056-.315-7.5.347-1.372,1.114-2.654,1.177-4.073.1-2.339-1.729-4.357-2-6.686-.189-1.619.394-3.259.205-4.883a5.256,5.256,0,0,0-2.759-3.984c-.526-.268-1.083-.447-1.577-.736-1.167-.678-1.908-1.9-2.964-2.733s-2.823-1.151-3.616-.063Z" transform="translate(-206.497 -219.812)" fill="#a26565"/>
    <g id="Group_185" data-name="Group 185" transform="translate(228.819 246.742)" opacity="0.1">
      <path id="Path_503" data-name="Path 503" d="M445.971,469.443v.247C445.966,469.611,445.971,469.527,445.971,469.443Z" transform="translate(-440.384 -469.443)" fill="#fff" opacity="0.1"/>
      <path id="Path_504" data-name="Path 504" d="M475.653,482.7a22.58,22.58,0,0,0,.237-3.411,22.58,22.58,0,0,0-.237,3.411Z" transform="translate(-454.466 -474.116)" fill="#fff" opacity="0.1"/>
      <path id="Path_505" data-name="Path 505" d="M439.423,493.013c-.121-1.33-.741-2.581-.888-3.9a4.846,4.846,0,0,0-.031.731c.052,1.451.773,2.8.914,4.247a5.276,5.276,0,0,0,.005-1.078Z" transform="translate(-436.841 -478.774)" fill="#fff" opacity="0.1"/>
      <path id="Path_506" data-name="Path 506" d="M477.037,503.234a9.107,9.107,0,0,0-.221,2.665,8.239,8.239,0,0,1,.221-1.545c.347-1.372,1.114-2.654,1.177-4.073a4.554,4.554,0,0,0-.037-.757A31.123,31.123,0,0,1,477.037,503.234Z" transform="translate(-455.009 -483.713)" fill="#fff" opacity="0.1"/>
      <path id="Path_507" data-name="Path 507" d="M439.249,506.813a5.587,5.587,0,0,1-3.154,1.293c-.247.378-.526.757-.752,1.12a5.535,5.535,0,0,0,3.905-1.272,29.671,29.671,0,0,1,1.246,8.021,29.534,29.534,0,0,0-1.246-9.161Z" transform="translate(-435.344 -487.171)" fill="#fff" opacity="0.1"/>
      <path id="Path_508" data-name="Path 508" d="M466.3,526.958c-.237,1.2-.746,2.539-1.9,2.943a3.2,3.2,0,0,0-.83.31c-.526.373-.494,1.146-.6,1.782a4.209,4.209,0,0,1-1.792,2.586,12.619,12.619,0,0,1-2.907,1.382l-4.01,1.5a5.468,5.468,0,0,1-.194,1.193l4.2-1.577a12.616,12.616,0,0,0,2.907-1.382,4.209,4.209,0,0,0,1.792-2.586c.11-.641.079-1.414.6-1.787a3.409,3.409,0,0,1,.83-.3c1.156-.41,1.666-1.745,1.9-2.943a17.057,17.057,0,0,0,.3-3.795,17.656,17.656,0,0,1-.3,2.675Z" transform="translate(-444.224 -495.459)" fill="#fff" opacity="0.1"/>
      <path id="Path_509" data-name="Path 509" d="M446.824,535.685a1.458,1.458,0,0,0-.457-.342,1.531,1.531,0,0,0-.578-.074h-1.751c-.068.373-.142.746-.226,1.114h1.977a1.529,1.529,0,0,1,.578.074,1.376,1.376,0,0,1,.457.341,8.476,8.476,0,0,1,2.549,5.02A7.927,7.927,0,0,0,446.824,535.685Z" transform="translate(-439.361 -500.67)" fill="#fff" opacity="0.1"/>
    </g>
    <path id="Path_510" data-name="Path 510" d="M430.9,549.713s1.577-.673,1.955,0S430.9,549.713,430.9,549.713Z" transform="translate(-204.414 -260.639)" fill="#fff" opacity="0.1"/>
    <path id="Path_511" data-name="Path 511" d="M431.945,551.873s1.577-.673,1.955,0S431.945,551.873,431.945,551.873Z" transform="translate(-204.912 -261.664)" fill="#fff" opacity="0.1"/>
    <g id="Group_186" data-name="Group 186" transform="translate(125.936 28.227)" opacity="0.1">
      <path id="Path_512" data-name="Path 512" d="M289.6,53.7a4.389,4.389,0,0,1,.089,1.54,4.086,4.086,0,0,1-.089-1.54Z" transform="translate(-263.305 -53.703)" fill="#fff" opacity="0.1"/>
      <path id="Path_513" data-name="Path 513" d="M293.508,62.528a1.651,1.651,0,0,0-.168.562,1.709,1.709,0,0,1,.058-1.424,9.112,9.112,0,0,1,.883-1.1,1.736,1.736,0,0,0,.258-.5.362.362,0,0,1,.037.047,1.171,1.171,0,0,1-.184,1.314A9.745,9.745,0,0,0,293.508,62.528Z" transform="translate(-265.034 -56.72)" fill="#fff" opacity="0.1"/>
      <path id="Path_514" data-name="Path 514" d="M241.185,60.285c.773.589,1.65,1.051,2.423,1.629a3.966,3.966,0,0,1,1.1,1.209c.689,1.272.342,3.1,1.466,4.005s2.6.279,3.753-.415,2.481-1.508,3.748-1.051,1.8,1.855,2.938,2.439a4.075,4.075,0,0,0,3.3-.147,11.885,11.885,0,0,0,3.306-1.961,4.262,4.262,0,0,1,1.077-.762,3.269,3.269,0,0,1,2.675.436,5.184,5.184,0,0,0,2.628.873,2.376,2.376,0,0,0,2.1-2.1,1.676,1.676,0,0,1,.11.452,2.355,2.355,0,0,1-2.1,2.5,5.3,5.3,0,0,1-2.628-.872,3.324,3.324,0,0,0-2.681-.436,4.332,4.332,0,0,0-1.051.762,11.957,11.957,0,0,1-3.306,1.961,4.117,4.117,0,0,1-3.3.147c-1.146-.583-1.729-2.008-2.943-2.439s-2.591.373-3.742,1.051-2.707,1.256-3.753.415c-1.13-.909-.783-2.733-1.472-4.005a3.829,3.829,0,0,0-1.1-1.209c-.767-.6-1.645-1.051-2.423-1.629a4.02,4.02,0,0,1-1.656-2.323,2.685,2.685,0,0,1-.053-.615A4.251,4.251,0,0,0,241.185,60.285Z" transform="translate(-239.602 -55.833)" fill="#fff" opacity="0.1"/>
    </g>
    <path id="Path_515" data-name="Path 515" d="M364.7,190.192c.168.226.258.368.258.368l2.318-.3,1.219-1.577s.31-3.5-2.1-3.453a3.447,3.447,0,0,1-1.356-.347c-.194,1.051.978,1.913.978,1.913s.484.352.368,2A1.563,1.563,0,0,1,364.7,190.192Z" transform="translate(-173.013 -87.707)" fill="#fff" opacity="0.1"/>
    <path id="Path_516" data-name="Path 516" d="M369.223,188.1c.5.258.888.436.967.473.237.116,1.461-1.251,1.629-2.349s3.1-4.531,3.1-4.531A12.3,12.3,0,0,0,376,177.4c.11-1.5-.526-1.614-1.246-1.277a15.727,15.727,0,0,1-1.051,4.7C373,182.251,370.038,186.85,369.223,188.1Z" transform="translate(-175.157 -83.477)" fill="#fff" opacity="0.1"/>
    <path id="Path_517" data-name="Path 517" d="M285.666,241.912a.653.653,0,0,1-.042.089,5.829,5.829,0,0,0,.321.526l4.636-1.424s-.268-1.051-.673-2.292c-1.834-.526-4.462,2.7-4.462,2.7Z" transform="translate(-135.414 -113.263)" fill="#fff" opacity="0.1"/>
    <path id="Path_518" data-name="Path 518" d="M216.594,58.351l.142,1.1,4.8.678s.394-.294,1.009-.694c-.526-.116-2.891-.636-4.142-1.051-.457-.142-.767-.263-.778-.347s.032-.095.105-.158Z" transform="translate(-102.751 -27.459)" fill="#fff" opacity="0.1"/>
    <path id="Path_519" data-name="Path 519" d="M323.761,154.633l-5.335,4.037s2.413,1.246,4.662,2.691c1.966-1.33,3.821-2.554,5.225-3.679A18.286,18.286,0,0,1,323.761,154.633Z" transform="translate(-151.06 -73.357)" fill="#fff" opacity="0.1"/>
    <path id="Path_520" data-name="Path 520" d="M272.912,196.476a18.212,18.212,0,0,0,3.91-.936s.983-.215,2.444-.7c-.042-.526-.074-1.083-.079-1.74a35.723,35.723,0,0,0-.731-5.6l-5.409.983-.142,6.039a4.049,4.049,0,0,0,.005,1.96Z" transform="translate(-129.41 -88.945)" fill="#fff" opacity="0.1"/>
    <path id="Path_521" data-name="Path 521" d="M276.426,131.112s9.918,14.312,10.512,14.838S276.946,130.933,276.426,131.112Z" transform="translate(-131.135 -62.198)" fill="#fff" opacity="0.1"/>
    <path id="Path_522" data-name="Path 522" d="M267.7,128.983s6.87,10.665,6.728,12.089C274.431,141.1,267.782,130.854,267.7,128.983Z" transform="translate(-126.997 -61.189)" fill="#fff" opacity="0.1"/>
    <path id="Path_523" data-name="Path 523" d="M259.516,134.593s1.267,5.966-.641,9.34Z" transform="translate(-122.809 -63.85)" fill="#fff" opacity="0.1"/>
    <path id="Path_524" data-name="Path 524" d="M254.474,135.253s-.084,5.156-.662,6.218Z" transform="translate(-120.407 -64.163)" fill="#fff" opacity="0.1"/>
    <path id="Path_525" data-name="Path 525" d="M287.074,126.493l9.119,3.574-3.338.436Z" transform="translate(-136.186 -60.007)" fill="#fff" opacity="0.1"/>
    <path id="Path_526" data-name="Path 526" d="M320.055,57.685l.873,3.527,1.135-.683a8.9,8.9,0,0,0-1-3.406Z" transform="translate(-151.832 -27.099)" fill="#fff" opacity="0.1"/>
    <path id="Path_527" data-name="Path 527" d="M318.281,57.092a.751.751,0,0,1,.268,0c.836.258,1.924,7.49,1.051,8.152a3.358,3.358,0,0,1-1.466.636h-.126l-.279-2.413a1.7,1.7,0,0,0-.2.131v-.1a6.307,6.307,0,0,0-1.188-5.356Z" transform="translate(-150.068 -27.078)" fill="#fff" opacity="0.1"/>
    <path id="Path_528" data-name="Path 528" d="M317.876,63.486l.279,2.413a3.379,3.379,0,0,0,1.808-.673c.862-.662-.226-7.884-1.051-8.152-.662-.2-1.824.62-2.286.972a6.267,6.267,0,0,1,1.251,5.44Z" transform="translate(-150.205 -27.06)" fill="#445340"/>
    <path id="Path_529" data-name="Path 529" d="M260.983,80.893s-.667,1.871.179,2.5c0,0-.925-2.47-1.466-2.418" transform="translate(-123.198 -38.375)" fill="#fff" opacity="0.1"/>
    <path id="Path_530" data-name="Path 530" d="M308.934,52.163l.825,21.734,23.9-21.734Z" transform="translate(-146.557 -24.746)" fill="#fff"/>
    <path id="Path_531" data-name="Path 531" d="M308.934,52.163l.825,21.734,23.9-21.734Z" transform="translate(-146.557 -24.746)" fill="#fff" opacity="0.03"/>
    <path id="Path_532" data-name="Path 532" d="M831.442,692.466c9.811,0,17.766-1.529,17.766-3.416s-7.954-3.417-17.766-3.417-17.765,1.529-17.765,3.417S821.63,692.466,831.442,692.466Z" transform="translate(-386.004 -325.26)" fill="#fff"/>
    <path id="Path_533" data-name="Path 533" d="M845.036,689.637c1.144,0,2.071-1.212,2.071-2.707s-.927-2.707-2.071-2.707-2.071,1.212-2.071,2.707S843.892,689.637,845.036,689.637Z" transform="translate(-399.898 -324.592)" fill="#3d5643"/>
    <path id="Path_534" data-name="Path 534" d="M845.036,683.337c1.144,0,2.071-1.212,2.071-2.707s-.927-2.707-2.071-2.707-2.071,1.212-2.071,2.707S843.892,683.337,845.036,683.337Z" transform="translate(-399.898 -321.603)" fill="#3d5643"/>
    <path id="Path_535" data-name="Path 535" d="M845.036,677.037c1.144,0,2.071-1.212,2.071-2.707s-.927-2.707-2.071-2.707-2.071,1.212-2.071,2.707S843.892,677.037,845.036,677.037Z" transform="translate(-399.898 -318.614)" fill="#3d5643"/>
    <path id="Path_536" data-name="Path 536" d="M845.036,670.747c1.144,0,2.071-1.212,2.071-2.707s-.927-2.707-2.071-2.707-2.071,1.212-2.071,2.707S843.892,670.747,845.036,670.747Z" transform="translate(-399.898 -315.63)" fill="#3d5643"/>
    <path id="Path_537" data-name="Path 537" d="M845.036,664.447c1.144,0,2.071-1.212,2.071-2.707s-.927-2.707-2.071-2.707-2.071,1.212-2.071,2.707S843.892,664.447,845.036,664.447Z" transform="translate(-399.898 -312.642)" fill="#3d5643"/>
    <path id="Path_538" data-name="Path 538" d="M845.036,658.147c1.144,0,2.071-1.212,2.071-2.707s-.927-2.707-2.071-2.707-2.071,1.212-2.071,2.707S843.892,658.147,845.036,658.147Z" transform="translate(-399.898 -309.653)" fill="#3d5643"/>
    <path id="Path_539" data-name="Path 539" d="M845.036,651.857c1.144,0,2.071-1.212,2.071-2.707s-.927-2.707-2.071-2.707-2.071,1.212-2.071,2.707S843.892,651.857,845.036,651.857Z" transform="translate(-399.898 -306.669)" fill="#3d5643"/>
    <path id="Path_540" data-name="Path 540" d="M845.658,594.06a11,11,0,0,0,.767-1.135L841,592.031l5.876.042a9.89,9.89,0,0,0,.189-7.847l-7.884,4.089,7.274-5.345a9.908,9.908,0,1,0-16.367,11.09,10.318,10.318,0,0,0-1.13,1.8l7.059,3.679-7.527-2.528a9.939,9.939,0,0,0,1.577,9.309,9.908,9.908,0,1,0,15.579,0,9.917,9.917,0,0,0,0-12.252Z" transform="translate(-392.773 -274.227)" fill="#fff"/>
    <path id="Path_541" data-name="Path 541" d="M827.961,620.021a9.9,9.9,0,0,0,2.1,6.129,9.908,9.908,0,1,0,15.579,0C846.983,624.462,827.961,618.907,827.961,620.021Z" transform="translate(-392.773 -294.065)" fill="#fff" opacity="0.1"/>
  </g>
</svg>
