<svg xmlns="http://www.w3.org/2000/svg" width="59.958" height="50" viewBox="0 0 59.958 50">
  <g id="noun_ecommerce_2989111" transform="translate(-7.2 -14.4)">
    <g id="Group_39" data-name="Group 39" transform="translate(7.2 14.4)">
      <g id="Group_34" data-name="Group 34" transform="translate(19.856)">
        <g id="Group_30" data-name="Group 30">
          <g id="Group_29" data-name="Group 29">
            <path id="Path_104" data-name="Path 104" d="M44.932,23.932V15.652h9.532v24.7H36.652V23.932ZM35.4,23.514V41.6H55.716V14.4H44.584Z" transform="translate(-35.4 -14.4)" fill="#fff"/>
          </g>
        </g>
        <g id="Group_31" data-name="Group 31" transform="translate(3.061 13.219)">
          <rect id="Rectangle_32" data-name="Rectangle 32" width="13.776" height="1.113" fill="#fff"/>
        </g>
        <g id="Group_32" data-name="Group 32" transform="translate(3.061 17.046)">
          <rect id="Rectangle_33" data-name="Rectangle 33" width="13.776" height="1.113" fill="#fff"/>
        </g>
        <g id="Group_33" data-name="Group 33" transform="translate(3.061 20.873)">
          <rect id="Rectangle_34" data-name="Rectangle 34" width="13.776" height="1.113" fill="#fff"/>
        </g>
      </g>
      <g id="Group_38" data-name="Group 38" transform="translate(0 7.445)">
        <g id="Group_35" data-name="Group 35" transform="translate(0 40.259)">
          <rect id="Rectangle_35" data-name="Rectangle 35" width="59.958" height="3.296" transform="translate(0 -1)" fill="#2c5f5b"/>
        </g>
        <g id="Group_36" data-name="Group 36" transform="translate(0 32.467)">
          <path id="Path_105" data-name="Path 105" d="M57.761,71.2H15.685L7.2,78.227H67.158ZM31.6,77.462,33.287,76h7.574l1.823,1.461ZM16.176,75.514l3.576-3.131H53.624l4,3.131Z" transform="translate(-7.2 -71.2)" fill="#2c5f5b"/>
        </g>
        <g id="Group_37" data-name="Group 37" transform="translate(8.419)">
          <path id="Path_106" data-name="Path 106" d="M59.723,25.1H54.366v2.574h2.992a1.338,1.338,0,0,1,1.322,1.392V52.373a1.383,1.383,0,0,1-1.322,1.391H23.4a1.338,1.338,0,0,1-1.322-1.391V29.066A1.383,1.383,0,0,1,23.4,27.674h3.548V25.1H21.039A1.722,1.722,0,0,0,19.3,26.839V54.53a1.722,1.722,0,0,0,1.739,1.739H59.654a1.722,1.722,0,0,0,1.739-1.739V26.909A1.772,1.772,0,0,0,59.723,25.1Z" transform="translate(-19.3 -25.1)" fill="#2c5f5b"/>
        </g>
      </g>
    </g>
  </g>
</svg>
