<svg xmlns="http://www.w3.org/2000/svg" width="243" height="100" viewBox="0 0 243 100">
  <g id="Group_168" data-name="Group 168" transform="translate(-11281.214 -1011.051)">
    <rect id="Rectangle_134" data-name="Rectangle 134" width="243" height="100" rx="11" transform="translate(11281.214 1011.051)" fill="rgba(255,255,255,0.13)"/>
    <rect id="Rectangle_116" data-name="Rectangle 116" width="22.38" height="5.388" transform="translate(11348.734 1039.7)" fill="#fff"/>
    <rect id="Rectangle_117" data-name="Rectangle 117" width="16.992" height="5.388" transform="translate(11440.742 1039.7)" fill="#fff"/>
    <rect id="Rectangle_118" data-name="Rectangle 118" width="7.874" height="5.388" transform="translate(11456.491 1039.7)" fill="#fff"/>
    <rect id="Rectangle_119" data-name="Rectangle 119" width="53.464" height="5.388" transform="translate(11378.989 1039.7)" fill="#fff"/>
    <rect id="Rectangle_120" data-name="Rectangle 120" width="22.38" height="5.388" transform="translate(11352.051 1074.514)" fill="#fff"/>
    <rect id="Rectangle_121" data-name="Rectangle 121" width="7.874" height="5.388" transform="translate(11444.059 1074.514)" fill="#fff"/>
    <rect id="Rectangle_122" data-name="Rectangle 122" width="17.821" height="5.388" transform="translate(11449.86 1074.514)" fill="#fff"/>
    <rect id="Rectangle_123" data-name="Rectangle 123" width="53.464" height="5.388" transform="translate(11382.306 1074.514)" fill="#fff"/>
    <rect id="Rectangle_124" data-name="Rectangle 124" width="22.38" height="5.388" transform="translate(11412.975 1051.719)" fill="#fff"/>
    <rect id="Rectangle_125" data-name="Rectangle 125" width="22.38" height="5.388" transform="translate(11443.229 1051.719)" fill="#fff"/>
    <rect id="Rectangle_126" data-name="Rectangle 126" width="7.874" height="5.388" transform="translate(11473.483 1051.719)" fill="#fff"/>
    <rect id="Rectangle_127" data-name="Rectangle 127" width="7.874" height="5.388" transform="translate(11336.302 1051.719)" fill="#fff"/>
    <rect id="Rectangle_128" data-name="Rectangle 128" width="53.464" height="5.388" transform="translate(11352.051 1051.719)" fill="#fff"/>
    <rect id="Rectangle_129" data-name="Rectangle 129" width="22.38" height="5.388" transform="translate(11366.557 1063.323)" fill="#fff"/>
    <rect id="Rectangle_130" data-name="Rectangle 130" width="22.38" height="5.388" transform="translate(11336.302 1063.323)" fill="#fff"/>
    <rect id="Rectangle_131" data-name="Rectangle 131" width="7.874" height="5.388" transform="translate(11473.483 1063.323)" fill="#fff"/>
    <rect id="Rectangle_132" data-name="Rectangle 132" width="16.874" height="5.388" transform="translate(11457.734 1063.323)" fill="#fff"/>
    <rect id="Rectangle_133" data-name="Rectangle 133" width="53.464" height="5.388" transform="translate(11396.396 1063.323)" fill="#fff"/>
  </g>
</svg>
