<svg xmlns="http://www.w3.org/2000/svg" width="312.555" height="32.41" viewBox="0 0 312.555 32.41">
  <path id="Path_113" data-name="Path 113" d="M4400.024,4249.82l-.005-1c1.666-.009,3.346-.026,4.995-.052l.016,1C4403.377,4249.793,4401.693,4249.811,4400.024,4249.82Zm-8.008-.022c-1.653-.018-3.336-.043-5-.077l.02-1c1.665.033,3.346.059,5,.077Zm21.02-.223-.033-1c1.665-.054,3.344-.119,4.991-.191l.044,1C4416.387,4249.457,4414.7,4249.521,4413.035,4249.575Zm-34.027-.074c-1.652-.058-3.334-.124-5-.2l.043-1c1.664.073,3.343.139,4.992.2Zm47.028-.542-.062-1c1.663-.1,3.339-.219,4.982-.342l.075,1C4429.384,4248.74,4427.7,4248.855,4426.036,4248.959Zm-60.028-.059c-1.65-.095-3.331-.2-4.995-.307l.066-1c1.661.109,3.338.212,4.986.307Zm-12.98-.883c-1.649-.129-3.327-.268-4.988-.411l.086-1c1.658.143,3.333.281,4.98.411Zm85.984-.078-.095-1c1.659-.158,3.331-.328,4.968-.506l.108.994C4442.352,4247.61,4440.675,4247.78,4439.012,4247.939Zm-98.943-1.07c-1.646-.162-3.321-.333-4.977-.509l.1-.994c1.654.175,3.327.346,4.97.508Zm111.878-.392-.13-.991c1.652-.217,3.316-.448,4.945-.686l.145.99C4455.272,4246.029,4453.6,4246.26,4451.947,4246.478Zm-124.814-1.006c-1.644-.193-3.315-.4-4.968-.6l.124-.993c1.651.206,3.32.407,4.961.6Zm137.689-.937-.168-.985c1.643-.282,3.3-.579,4.913-.883l.185.983C4468.128,4243.954,4466.47,4244.252,4464.821,4244.534Zm-150.593-.694c-1.64-.222-3.308-.454-4.956-.688l.141-.99c1.646.234,3.311.465,4.949.687Zm163.375-1.776-.211-.978c1.629-.352,3.268-.722,4.87-1.1l.229.973C4480.883,4241.339,4479.239,4241.71,4477.6,4242.063Zm-176.254-.08c-1.637-.25-3.3-.509-4.943-.771l.157-.988c1.642.262,3.3.521,4.938.771Zm-12.844-2.069c-1.634-.277-3.293-.563-4.931-.851l.173-.985c1.636.288,3.293.573,4.925.85Zm201.761-.9-.258-.966c1.61-.43,3.228-.878,4.809-1.333l.276.961C4493.507,4238.131,4491.883,4238.582,4490.267,4239.013ZM4275.7,4237.64c-1.631-.3-3.286-.615-4.919-.929l.188-.982c1.631.313,3.284.625,4.913.927Zm227.059-2.311-.309-.952c1.585-.514,3.176-1.049,4.729-1.591l.329.944C4505.949,4234.275,4504.351,4234.813,4502.759,4235.33Zm-239.827-.163c-1.628-.328-3.279-.666-4.907-1l.2-.979c1.626.338,3.275.675,4.9,1ZM4250.2,4232.5c-1.625-.354-3.27-.716-4.89-1.079l.218-.976c1.619.362,3.262.725,4.884,1.078Zm-12.693-2.863c-1.617-.377-3.251-.765-4.858-1.15l.233-.972c1.6.385,3.238.771,4.853,1.149Zm-12.646-3.06c-1.618-.4-3.247-.818-4.842-1.229l.249-.969c1.593.41,3.22.823,4.836,1.228Zm-12.583-3.264c-1.633-.439-3.26-.883-4.835-1.319l.267-.964c1.574.436,3.2.879,4.828,1.317Zm-12.531-3.508c-3.085-.9-4.771-1.434-4.788-1.439l.3-.954c.017.005,1.694.533,4.769,1.434Z" transform="translate(-4194.954 -4217.41)" fill="#2c5f5b"/>
</svg>
