<svg xmlns="http://www.w3.org/2000/svg" width="51.63" height="50" viewBox="0 0 51.63 50">
  <g id="noun_sales_3812663" transform="translate(-2.494 -3.994)">
    <g id="Group_25" data-name="Group 25" transform="translate(2.494 3.994)">
      <path id="Path_87" data-name="Path 87" d="M43.828,25.8h.33A17.433,17.433,0,0,0,28.368,11a1.378,1.378,0,0,0-1.485,1.32v14.69a1.351,1.351,0,0,1-1.32,1.375H10.818A1.378,1.378,0,0,0,9.5,29.868,17.43,17.43,0,0,0,26.112,45.823,14.022,14.022,0,0,1,26,43.677,17.763,17.763,0,0,1,43.828,25.8Z" transform="translate(-5.642 -7.142)" fill="#2c5f5b"/>
      <path id="Path_88" data-name="Path 88" d="M19.883,20.062V5.373A1.388,1.388,0,0,0,18.4,4,17.515,17.515,0,0,0,2.5,19.9a1.358,1.358,0,0,0,1.375,1.485h14.69A1.339,1.339,0,0,0,19.883,20.062Z" transform="translate(-2.494 -3.994)" fill="#fff"/>
      <path id="Path_89" data-name="Path 89" d="M60.384,44.7A14.112,14.112,0,1,0,74.468,58.784,14.076,14.076,0,0,0,60.384,44.7Zm1.375,21.072v1.54a.551.551,0,0,1-.55.55H59.559a.551.551,0,0,1-.55-.55V65.827a3.74,3.74,0,0,1-3.246-3.3.732.732,0,0,1,.165-.44.625.625,0,0,1,.44-.165h1.706a.536.536,0,0,1,.55.44.943.943,0,0,0,.935.715h1.485a1.5,1.5,0,0,0,1.54-1.265,1.305,1.305,0,0,0-.385-1.1,1.355,1.355,0,0,0-1.045-.5h-1.1a4.365,4.365,0,0,1-4.4-3.8,4.188,4.188,0,0,1,3.466-4.566V50.367a.551.551,0,0,1,.55-.55h1.651a.551.551,0,0,1,.55.55v1.485a3.74,3.74,0,0,1,3.246,3.3,1.3,1.3,0,0,1-.11.44.625.625,0,0,1-.44.165H62.86a.536.536,0,0,1-.55-.44.943.943,0,0,0-.935-.715H59.889a1.5,1.5,0,0,0-1.54,1.32,1.305,1.305,0,0,0,.385,1.1,1.385,1.385,0,0,0,1.1.5h1.155a4.248,4.248,0,0,1,3.136,1.375,4.134,4.134,0,0,1,1.1,3.246A4.254,4.254,0,0,1,61.759,65.772Z" transform="translate(-22.838 -22.924)" fill="#2c5f5b"/>
    </g>
  </g>
</svg>
